<?xml version="1.0" encoding="utf-8"?>
<!-- Generator: Adobe Illustrator 19.0.0, SVG Export Plug-In . SVG Version: 6.00 Build 0)  -->
<svg version="1.1" id="Layer_1" xmlns="http://www.w3.org/2000/svg" xmlns:xlink="http://www.w3.org/1999/xlink" x="0px" y="0px"
	 viewBox="0 0 72 72" style="enable-background:new 0 0 72 72;" xml:space="preserve">
<style type="text/css">
	.st0{fill:none;stroke:#293052;}
</style>
<g id="XMLID_1175_">
	<path id="XMLID_1177_" class="st0" d="M33.2,70L13.8,32c-0.1-0.2-0.2-0.4-0.3-0.6c-0.9-2.4-1.4-5.1-1.4-7.8c0-3.5,0.9-7,2.4-10
		C18.4,5.9,26.5,0.5,36,0.5c9.4,0,17.6,5.4,21.5,13.1c1.5,3,2.4,6.4,2.4,10c0,2.7-0.5,5.4-1.4,7.8c-0.1,0.2-0.2,0.4-0.3,0.6L38.8,70
		C37.3,72,34.5,72,33.2,70z"/>
	<ellipse id="XMLID_1176_" class="st0" cx="35.9" cy="21.9" rx="9.5" ry="9.1"/>
</g>
</svg>
