<?xml version="1.0" encoding="utf-8"?>
<!-- Generator: Adobe Illustrator 14.0.0, SVG Export Plug-In . SVG Version: 6.00 Build 43363)  -->
<!DOCTYPE svg PUBLIC "-//W3C//DTD SVG 1.1//EN" "http://www.w3.org/Graphics/SVG/1.1/DTD/svg11.dtd">
<svg version="1.1" id="Layer_1" xmlns="http://www.w3.org/2000/svg" xmlns:xlink="http://www.w3.org/1999/xlink" x="0px" y="0px"
	 width="50px" height="50px" viewBox="0 0 50 50" enable-background="new 0 0 50 50" xml:space="preserve">
<g>
	<rect x="2.756" y="9.687" fill="#C2C2C2" width="45.498" height="0.664"/>
	<rect x="2.756" y="17.789" fill="#C2C2C2" width="45.498" height="0.665"/>
	<rect x="2.756" y="25.891" fill="#C2C2C2" width="45.498" height="0.664"/>
	<rect x="2.756" y="33.993" fill="#C2C2C2" width="45.498" height="0.664"/>
	<rect x="2.756" y="42.096" fill="#C2C2C2" width="45.498" height="0.665"/>
</g>
<path fill="#E88124" d="M49.5,9.109c0-1.033-0.837-1.87-1.87-1.87c-1.031,0-1.869,0.837-1.869,1.87c0,0.622,0.308,1.169,0.774,1.509
	L44.7,17.936l-15.967,13.73l-5.454,5.896l-11.114-3.567l-2.713,2.295l-5.384-1.506L0.5,41.923l1.189,0.593l3.078-6.157l5.004,1.401
	l2.689-2.275l11.22,3.601l5.948-6.438l16.258-13.98l1.933-7.709C48.762,10.864,49.5,10.077,49.5,9.109z"/>
</svg>
