<?xml version="1.0" encoding="utf-8"?>
<!-- Generator: Adobe Illustrator 14.0.0, SVG Export Plug-In . SVG Version: 6.00 Build 43363)  -->
<!DOCTYPE svg PUBLIC "-//W3C//DTD SVG 1.1//EN" "http://www.w3.org/Graphics/SVG/1.1/DTD/svg11.dtd">
<svg version="1.1" id="Layer_1" xmlns="http://www.w3.org/2000/svg" xmlns:xlink="http://www.w3.org/1999/xlink" x="0px" y="0px"
	 width="50px" height="50px" viewBox="0 0 50 50" enable-background="new 0 0 50 50" xml:space="preserve">
<g>
	<path fill="#E88124" d="M25.001,0.5C11.491,0.5,0.5,11.49,0.5,25s10.991,24.5,24.501,24.5C38.51,49.5,49.5,38.51,49.5,25
		S38.51,0.5,25.001,0.5z M25.001,46.215C13.302,46.215,3.785,36.698,3.785,25S13.302,3.785,25.001,3.785
		c11.697,0,21.214,9.517,21.214,21.215S36.698,46.215,25.001,46.215z"/>
	<path fill="#E88124" d="M37.021,30.922c-7.091,6.945-16.519,6.949-23.457,0.009c-0.481-0.481-1.261-0.481-1.742,0
		c-0.48,0.48-0.48,1.261,0,1.742c3.925,3.925,8.655,5.888,13.407,5.888c4.747,0,9.515-1.96,13.517-5.879
		c0.486-0.476,0.494-1.256,0.018-1.742C38.289,30.454,37.508,30.447,37.021,30.922z"/>
	<circle fill="#E88124" cx="15.836" cy="21.798" r="2.898"/>
	<circle fill="#E88124" cx="34.122" cy="21.798" r="2.898"/>
</g>
</svg>
