<?xml version="1.0" encoding="utf-8"?>
<!-- Generator: Adobe Illustrator 14.0.0, SVG Export Plug-In . SVG Version: 6.00 Build 43363)  -->
<!DOCTYPE svg PUBLIC "-//W3C//DTD SVG 1.1//EN" "http://www.w3.org/Graphics/SVG/1.1/DTD/svg11.dtd">
<svg version="1.1" id="Layer_1" xmlns="http://www.w3.org/2000/svg" xmlns:xlink="http://www.w3.org/1999/xlink" x="0px" y="0px"
	 width="50px" height="50px" viewBox="0 0 50 50" enable-background="new 0 0 50 50" xml:space="preserve">
<g>
	<polygon fill="#EFEFF0" points="3.908,1.172 3.908,48.828 42.5,48.828 42.5,13.068 30.604,1.172 	"/>
	<polygon fill="#EFEFF0" points="42.498,13.067 30.604,1.172 30.604,13.067 	"/>
	<g>
		<path fill="#C2C2C2" d="M43.162,13.018c-0.004-0.054-0.015-0.107-0.032-0.159c-0.008-0.025-0.015-0.049-0.026-0.073
			c-0.029-0.066-0.069-0.128-0.121-0.182c-0.003-0.003-0.005-0.008-0.008-0.012L31.079,0.697c-0.002-0.002-0.005-0.002-0.007-0.004
			c-0.057-0.055-0.12-0.095-0.189-0.127c-0.021-0.01-0.043-0.015-0.065-0.023c-0.056-0.019-0.112-0.03-0.171-0.034
			C30.632,0.508,30.619,0.5,30.604,0.5H3.908c-0.371,0-0.672,0.301-0.672,0.672v47.656c0,0.371,0.301,0.672,0.672,0.672H42.5
			c0.371,0,0.672-0.301,0.672-0.672v-35.76C43.172,13.05,43.163,13.035,43.162,13.018z M31.275,2.794l9.601,9.601h-9.601V2.794z
			 M41.827,48.156H4.58V1.844h25.352v11.223c0,0.371,0.3,0.672,0.672,0.672h11.224V48.156z"/>
		<path fill="#C2C2C2" d="M7.729,11.027h20.85c0.186,0,0.336-0.15,0.336-0.336c0-0.186-0.15-0.336-0.336-0.336H7.729
			c-0.186,0-0.336,0.15-0.336,0.336C7.393,10.877,7.543,11.027,7.729,11.027z"/>
		<path fill="#C2C2C2" d="M7.729,14.135h20.85c0.186,0,0.336-0.15,0.336-0.336s-0.15-0.336-0.336-0.336H7.729
			c-0.186,0-0.336,0.15-0.336,0.336S7.543,14.135,7.729,14.135z"/>
		<path fill="#C2C2C2" d="M35.149,39.492H7.729c-0.186,0-0.336,0.15-0.336,0.336s0.15,0.336,0.336,0.336h27.421
			c0.187,0,0.336-0.15,0.336-0.336S35.336,39.492,35.149,39.492z"/>
		<path fill="#C2C2C2" d="M7.729,17.501h20.85c0.186,0,0.336-0.15,0.336-0.336c0-0.186-0.15-0.336-0.336-0.336H7.729
			c-0.186,0-0.336,0.15-0.336,0.336C7.393,17.351,7.543,17.501,7.729,17.501z"/>
		<path fill="#C2C2C2" d="M7.729,22.681h8.482c0.186,0,0.336-0.15,0.336-0.336c0-0.186-0.15-0.336-0.336-0.336H7.729
			c-0.186,0-0.336,0.15-0.336,0.336C7.393,22.531,7.543,22.681,7.729,22.681z"/>
		<path fill="#C2C2C2" d="M17.675,22.345c0,0.371,0.301,0.672,0.673,0.672h17.029c0.246,0,0.452-0.139,0.569-0.336h3.283
			c0.186,0,0.336-0.15,0.336-0.336c0-0.186-0.15-0.336-0.336-0.336h-3.283c-0.117-0.197-0.323-0.336-0.569-0.336H18.348
			C17.976,21.673,17.675,21.974,17.675,22.345z"/>
		<path fill="#C2C2C2" d="M7.729,29.383h8.482c0.186,0,0.336-0.15,0.336-0.336c0-0.186-0.15-0.336-0.336-0.336H7.729
			c-0.186,0-0.336,0.15-0.336,0.336C7.393,29.233,7.543,29.383,7.729,29.383z"/>
		<path fill="#C2C2C2" d="M39.229,28.711h-3.283c-0.117-0.197-0.323-0.336-0.569-0.336H18.348c-0.372,0-0.673,0.301-0.673,0.672
			s0.301,0.672,0.673,0.672h17.029c0.246,0,0.452-0.139,0.569-0.336h3.283c0.186,0,0.336-0.15,0.336-0.336
			C39.565,28.861,39.415,28.711,39.229,28.711z"/>
	</g>
	<g>
		<g>
			<g>
				<path fill="#E98025" d="M34.397,34.123L34.397,34.123c-2.13,2.13-4.962,3.303-7.976,3.303c-3.012,0-5.844-1.173-7.975-3.303
					c-4.397-4.397-4.397-11.554,0-15.951s11.553-4.397,15.95,0S38.795,29.725,34.397,34.123L34.397,34.123z M20.58,20.305
					c-3.221,3.221-3.221,8.463,0,11.684c1.561,1.561,3.635,2.419,5.842,2.419c2.207,0,4.282-0.859,5.843-2.419
					c3.22-3.221,3.221-8.462,0-11.684S23.802,17.084,20.58,20.305L20.58,20.305z"/>
			</g>
		</g>
		<g>
			<path fill="#2A3152" d="M35.107,34.833c-0.466,0.466-0.973,0.878-1.511,1.235l9.852,9.852c0.759,0.758,1.989,0.758,2.747,0
				c0.758-0.758,0.758-1.988,0-2.746l-9.853-9.853C35.99,33.856,35.578,34.363,35.107,34.833z"/>
		</g>
	</g>
</g>
</svg>
