<?xml version="1.0" encoding="utf-8"?>
<!-- Generator: Adobe Illustrator 19.0.0, SVG Export Plug-In . SVG Version: 6.00 Build 0)  -->
<svg version="1.1" id="Layer_1" xmlns="http://www.w3.org/2000/svg" xmlns:xlink="http://www.w3.org/1999/xlink" x="0px" y="0px"
	 viewBox="0 0 50 50" style="enable-background:new 0 0 50 50;" xml:space="preserve">
<style type="text/css">
	.Graphic_x0020_Style{fill:none;stroke:white;stroke-width:2;stroke-miterlimit:10;}
	.st0{fill:none;stroke:white;stroke-width:0.6715;}
	.st1{fill:none;stroke:white;stroke-width:0.6715;stroke-miterlimit:10;}
</style>
<g>
	<g>
		<ellipse id="XMLID_56_" class="st0" cx="25" cy="25" rx="24" ry="23.6"/>
		<g id="XMLID_53_">
			<path id="XMLID_55_" class="st1" d="M22.8,30.9c0-1.8,0.2-3.1,0.5-3.7c0.3-0.7,1.1-1.6,2.4-2.7c1.3-1.5,2.2-2.6,2.7-3.3
				c0.5-0.8,0.8-1.7,0.8-2.8c0-1.3-0.3-2.3-1.1-3.1c-0.8-0.8-1.8-1.1-3-1.1c-1.1,0-2.2,0.3-3,0.9c-0.8,0.6-1.2,1.5-1.2,2.7h-3.6
				l-0.1-0.1c-0.1-2,0.7-3.6,2.2-4.8s3.4-1.8,5.6-1.8c2.5,0,4.5,0.6,5.8,1.9s2.1,3,2.1,5.2c0,1.6-0.5,3.1-1.4,4.4s-2.1,2.7-3.5,4.1
				c-0.7,0.7-1.1,1.3-1.2,1.8s-0.2,1.3-0.2,2.5L22.8,30.9L22.8,30.9z"/>
			<ellipse id="XMLID_54_" class="st1" cx="24.6" cy="36.6" rx="2.3" ry="2.3"/>
		</g>
		<path class="Graphic_x0020_Style" d="M25,1.4C38.3,1.4,49,12,49,25S38.3,48.6,25,48.6S1,38,1,25S11.7,1.4,25,1.4z"/>
		<g id="XMLID_49_">
			<path id="XMLID_51_" class="Graphic_x0020_Style" d="M22.8,30.9c0-1.8,0.2-3.1,0.5-3.7c0.3-0.7,1.1-1.6,2.4-2.7
				c1.3-1.5,2.2-2.6,2.7-3.3c0.5-0.8,0.8-1.7,0.8-2.8c0-1.3-0.3-2.3-1.1-3.1c-0.8-0.8-1.8-1.1-3-1.1c-1.1,0-2.2,0.3-3,0.9
				c-0.8,0.6-1.2,1.5-1.2,2.7h-3.6l-0.1-0.1c-0.1-2,0.7-3.6,2.2-4.8s3.4-1.8,5.6-1.8c2.5,0,4.5,0.6,5.8,1.9s2.1,3,2.1,5.2
				c0,1.6-0.5,3.1-1.4,4.4s-2.1,2.7-3.5,4.1c-0.7,0.7-1.1,1.3-1.2,1.8s-0.2,1.3-0.2,2.5L22.8,30.9L22.8,30.9z"/>
			<ellipse id="XMLID_50_" class="Graphic_x0020_Style" cx="24.6" cy="36.6" rx="2.3" ry="2.3"/>
		</g>
	</g>
	<g>
		<ellipse id="XMLID_48_" class="Graphic_x0020_Style" cx="25" cy="25" rx="24" ry="23.6"/>
		<g id="XMLID_45_">
			<path id="XMLID_47_" class="Graphic_x0020_Style" d="M22.8,30.9c0-1.8,0.2-3.1,0.5-3.7c0.3-0.7,1.1-1.6,2.4-2.7
				c1.3-1.5,2.2-2.6,2.7-3.3c0.5-0.8,0.8-1.7,0.8-2.8c0-1.3-0.3-2.3-1.1-3.1c-0.8-0.8-1.8-1.1-3-1.1c-1.1,0-2.2,0.3-3,0.9
				c-0.8,0.6-1.2,1.5-1.2,2.7h-3.6l-0.1-0.1c-0.1-2,0.7-3.6,2.2-4.8s3.4-1.8,5.6-1.8c2.5,0,4.5,0.6,5.8,1.9s2.1,3,2.1,5.2
				c0,1.6-0.5,3.1-1.4,4.4s-2.1,2.7-3.5,4.1c-0.7,0.7-1.1,1.3-1.2,1.8s-0.2,1.3-0.2,2.5L22.8,30.9L22.8,30.9z"/>
			<ellipse id="XMLID_46_" class="Graphic_x0020_Style" cx="24.6" cy="36.6" rx="2.3" ry="2.3"/>
		</g>
		<path class="Graphic_x0020_Style" d="M25,1.4C38.3,1.4,49,12,49,25S38.3,48.6,25,48.6S1,38,1,25S11.7,1.4,25,1.4z"/>
		<g id="XMLID_41_">
			<path id="XMLID_43_" class="Graphic_x0020_Style" d="M22.8,30.9c0-1.8,0.2-3.1,0.5-3.7c0.3-0.7,1.1-1.6,2.4-2.7
				c1.3-1.5,2.2-2.6,2.7-3.3c0.5-0.8,0.8-1.7,0.8-2.8c0-1.3-0.3-2.3-1.1-3.1c-0.8-0.8-1.8-1.1-3-1.1c-1.1,0-2.2,0.3-3,0.9
				c-0.8,0.6-1.2,1.5-1.2,2.7h-3.6l-0.1-0.1c-0.1-2,0.7-3.6,2.2-4.8s3.4-1.8,5.6-1.8c2.5,0,4.5,0.6,5.8,1.9s2.1,3,2.1,5.2
				c0,1.6-0.5,3.1-1.4,4.4s-2.1,2.7-3.5,4.1c-0.7,0.7-1.1,1.3-1.2,1.8s-0.2,1.3-0.2,2.5L22.8,30.9L22.8,30.9z"/>
			<ellipse id="XMLID_42_" class="Graphic_x0020_Style" cx="24.6" cy="36.6" rx="2.3" ry="2.3"/>
		</g>
	</g>
</g>
</svg>
