<?xml version="1.0" encoding="utf-8"?>
<!-- Generator: Adobe Illustrator 19.0.0, SVG Export Plug-In . SVG Version: 6.00 Build 0)  -->
<svg version="1.1" id="Layer_1" xmlns="http://www.w3.org/2000/svg" xmlns:xlink="http://www.w3.org/1999/xlink" x="0px" y="0px"
	 viewBox="0 0 50 50" style="enable-background:new 0 0 50 50;" xml:space="preserve">
<style type="text/css">
	.Graphic_x0020_Style{fill:none;stroke:white;stroke-width:2;stroke-miterlimit:10;}
	.st0{fill:none;stroke:white;stroke-width:0.6748;}
	.st1{fill:none;stroke:white;stroke-width:1.9588;stroke-miterlimit:10;}
</style>
<g>
	<g>
		<g>
			<line id="XMLID_140_" class="st0" x1="1" y1="14.9" x2="49" y2="14.9"/>
			<polyline id="XMLID_139_" class="st0" points="30.8,5.5 30.8,8.8 19.2,8.8 19.2,5.5 			"/>
			<polyline id="XMLID_138_" class="st0" points="30.8,19.4 30.8,22.7 19.2,22.7 19.2,19.4 			"/>
			<polyline id="XMLID_137_" class="st0" points="30.8,33.3 30.8,36.6 19.2,36.6 19.2,33.3 			"/>
			<rect id="XMLID_136_" x="1" y="1" class="st0" width="48" height="41.6"/>
			<line id="XMLID_135_" class="st0" x1="1" y1="28.7" x2="49" y2="28.7"/>
			<line id="XMLID_134_" class="st0" x1="1" y1="50" x2="1" y2="42.6"/>
			<line id="XMLID_133_" class="st0" x1="8.2" y1="42.6" x2="8.2" y2="50"/>
			<line id="XMLID_132_" class="st0" x1="49" y1="42.6" x2="49" y2="50"/>
			<line id="XMLID_131_" class="st0" x1="41.8" y1="50" x2="41.8" y2="42.6"/>
		</g>
		<path class="st1" d="M1,14.9h48"/>
		<polyline id="XMLID_129_" class="st1" points="30.8,5.5 30.8,8.8 19.2,8.8 19.2,5.5 		"/>
		<polyline id="XMLID_128_" class="st1" points="30.8,19.4 30.8,22.7 19.2,22.7 19.2,19.4 		"/>
		<polyline id="XMLID_127_" class="st1" points="30.8,33.3 30.8,36.6 19.2,36.6 19.2,33.3 		"/>
		<rect id="XMLID_126_" x="1" y="1" class="st1" width="48" height="41.6"/>
		<line id="XMLID_125_" class="st1" x1="1" y1="28.7" x2="49" y2="28.7"/>
		<line id="XMLID_124_" class="st1" x1="1" y1="50" x2="1" y2="42.6"/>
		<line id="XMLID_123_" class="st1" x1="8.2" y1="42.6" x2="8.2" y2="50"/>
		<line id="XMLID_122_" class="st1" x1="49" y1="42.6" x2="49" y2="50"/>
		<line id="XMLID_121_" class="st1" x1="41.8" y1="50" x2="41.8" y2="42.6"/>
	</g>
	<g>
		<g>
			<line id="XMLID_120_" class="Graphic_x0020_Style" x1="1" y1="14.9" x2="49" y2="14.9"/>
			<polyline id="XMLID_119_" class="Graphic_x0020_Style" points="30.8,5.5 30.8,8.8 19.2,8.8 19.2,5.5 			"/>
			<polyline id="XMLID_118_" class="Graphic_x0020_Style" points="30.8,19.4 30.8,22.7 19.2,22.7 19.2,19.4 			"/>
			<polyline id="XMLID_117_" class="Graphic_x0020_Style" points="30.8,33.3 30.8,36.6 19.2,36.6 19.2,33.3 			"/>
			<rect id="XMLID_116_" x="1" y="1" class="Graphic_x0020_Style" width="48" height="41.6"/>
			<line id="XMLID_115_" class="Graphic_x0020_Style" x1="1" y1="28.7" x2="49" y2="28.7"/>
			<line id="XMLID_114_" class="Graphic_x0020_Style" x1="1" y1="50" x2="1" y2="42.6"/>
			<line id="XMLID_113_" class="Graphic_x0020_Style" x1="8.2" y1="42.6" x2="8.2" y2="50"/>
			<line id="XMLID_112_" class="Graphic_x0020_Style" x1="49" y1="42.6" x2="49" y2="50"/>
			<line id="XMLID_111_" class="Graphic_x0020_Style" x1="41.8" y1="50" x2="41.8" y2="42.6"/>
		</g>
		<path class="Graphic_x0020_Style" d="M1,14.9h48"/>
		<polyline id="XMLID_109_" class="Graphic_x0020_Style" points="30.8,5.5 30.8,8.8 19.2,8.8 19.2,5.5 		"/>
		<polyline id="XMLID_108_" class="Graphic_x0020_Style" points="30.8,19.4 30.8,22.7 19.2,22.7 19.2,19.4 		"/>
		<polyline id="XMLID_107_" class="Graphic_x0020_Style" points="30.8,33.3 30.8,36.6 19.2,36.6 19.2,33.3 		"/>
		<rect id="XMLID_106_" x="1" y="1" class="Graphic_x0020_Style" width="48" height="41.6"/>
		<line id="XMLID_105_" class="Graphic_x0020_Style" x1="1" y1="28.7" x2="49" y2="28.7"/>
		<line id="XMLID_104_" class="Graphic_x0020_Style" x1="1" y1="50" x2="1" y2="42.6"/>
		<line id="XMLID_103_" class="Graphic_x0020_Style" x1="8.2" y1="42.6" x2="8.2" y2="50"/>
		<line id="XMLID_102_" class="Graphic_x0020_Style" x1="49" y1="42.6" x2="49" y2="50"/>
		<line id="XMLID_101_" class="Graphic_x0020_Style" x1="41.8" y1="50" x2="41.8" y2="42.6"/>
	</g>
</g>
</svg>
