<?xml version="1.0" encoding="utf-8"?>
<!-- Generator: Adobe Illustrator 19.0.0, SVG Export Plug-In . SVG Version: 6.00 Build 0)  -->
<svg version="1.1" id="Layer_1" xmlns="http://www.w3.org/2000/svg" xmlns:xlink="http://www.w3.org/1999/xlink" x="0px" y="0px"
	 viewBox="0 0 72 72" style="enable-background:new 0 0 72 72;" xml:space="preserve">
<style type="text/css">
	.st0{fill:none;stroke:#293052;stroke-width:0.9338;stroke-linecap:round;stroke-miterlimit:10;}
	.st1{fill:none;stroke:#293052;stroke-width:0.9984;stroke-linecap:round;stroke-miterlimit:10;}
</style>
<g id="XMLID_738_">
	<path id="XMLID_753_" class="st0" d="M32.9,25.7c-3.8,0-9.5,0-13.3,0c-0.2,0-1.1,0-1.9-0.9c-0.5-0.5-0.8-1.3-0.8-2.1V3.5
		c0-1.7,1.2-3,2.6-3h32.8c1.4,0,2.6,1.3,2.6,3v19.2c0,1.7-1.2,3-2.6,3c-3.7,0-9.1,0-12.9,0"/>
	<path id="XMLID_752_" class="st1" d="M42.9,18.1H29.1c-1.2,0-2.2-1-2.2-2.2v-5.7c0-1.2,1-2.2,2.2-2.2h13.8c1.2,0,2.2,1,2.2,2.2v5.7
		C45.1,17.1,44.1,18.1,42.9,18.1z"/>
	<path id="XMLID_739_" class="st1" d="M30.3,25.7v41.8c0,2.2,1.8,4,4,4h3.5c2.2,0,4-1.8,4-4V25.7"/>
	<path id="XMLID_749_" class="st1" d="M30.3,42.8H26c-1.7,0-3,1.3-3,3v2.6c0,1.7,1.3,3,3,3h4.2"/>
	<path id="XMLID_751_" class="st1" d="M30.3,55.7h-10c-1.7,0-3,1.3-3,3v2.6c0,1.7,1.3,3,3,3h10"/>
</g>
</svg>
