<?xml version="1.0" encoding="utf-8"?>
<!-- Generator: Adobe Illustrator 14.0.0, SVG Export Plug-In . SVG Version: 6.00 Build 43363)  -->
<!DOCTYPE svg PUBLIC "-//W3C//DTD SVG 1.1//EN" "http://www.w3.org/Graphics/SVG/1.1/DTD/svg11.dtd">
<svg version="1.1" id="Layer_1" xmlns="http://www.w3.org/2000/svg" xmlns:xlink="http://www.w3.org/1999/xlink" x="0px" y="0px"
	 width="50px" height="50px" viewBox="0 0 50 50" enable-background="new 0 0 50 50" xml:space="preserve">
<g>
	<g>
		<polygon fill="#C2C2C2" points="26.33,19.089 24.7,19.089 18.136,19.089 12.75,19.089 5.816,19.089 1.91,19.089 1.505,19.089 
			0,19.089 0,20.478 1.505,20.478 1.91,20.478 5.816,20.478 13.886,20.478 19.272,20.478 20.506,21.982 22.686,20.478 
			27.476,20.478 48.611,20.478 50,20.478 50,19.089 48.611,19.089 		"/>
		<polygon fill="#C2C2C2" points="48.611,8.325 42.145,8.325 40.973,8.325 28.646,8.325 9.325,8.325 3.938,8.325 1.505,8.325 
			0,8.325 0,9.02 1.505,9.02 4.507,9.02 9.893,9.02 28.646,9.02 40.973,9.02 42.145,9.02 48.611,9.02 50,9.02 50,8.325 		"/>
		<polygon fill="#C2C2C2" points="36.063,30.895 30.661,30.895 12.717,30.895 4.037,30.895 1.505,30.895 0,30.895 0,33.672 
			1.505,33.672 4.037,33.672 12.717,33.672 32.951,33.672 38.352,33.672 48.611,33.672 50,33.672 50,30.895 48.611,30.895 		"/>
	</g>
	<polygon fill="#E98024" points="43.311,33.972 43.311,39.689 36.036,30.895 36.063,30.895 27.547,20.564 27.561,20.564 
		25.739,18.372 22.686,20.478 20.506,21.982 18.129,19.089 18.136,19.089 9.314,8.325 9.325,8.325 5.663,3.853 2.438,6.492 
		3.76,8.108 3.75,8.108 12.288,18.525 12.279,18.525 19.708,27.589 24.955,23.975 29.462,29.44 29.449,29.44 40.077,42.314 
		34.965,42.314 38.8,46.147 43.313,46.146 43.313,46.147 47.141,46.147 47.141,37.807 	"/>
</g>
</svg>
