<?xml version="1.0" encoding="utf-8"?>
<!-- Generator: Adobe Illustrator 19.0.0, SVG Export Plug-In . SVG Version: 6.00 Build 0)  -->
<svg version="1.1" id="Layer_1" xmlns="http://www.w3.org/2000/svg" xmlns:xlink="http://www.w3.org/1999/xlink" x="0px" y="0px"
	 viewBox="0 0 72 72" style="enable-background:new 0 0 72 72;" xml:space="preserve">
<style type="text/css">
	.st0{fill:none;stroke:#283052;}
	.st1{fill:none;stroke:#283052;stroke-linecap:round;}
	.st2{fill:#283052;}
</style>
<g id="XMLID_840_">
	<g id="XMLID_841_">
		<ellipse id="XMLID_887_" class="st0" cx="36" cy="36" rx="35.5" ry="35.3"/>
		<ellipse id="XMLID_886_" class="st0" cx="36" cy="36" rx="27.6" ry="27.4"/>
		<g id="XMLID_883_">
			<line id="XMLID_885_" class="st1" x1="36.2" y1="16.3" x2="36.2" y2="35.9"/>
			<line id="XMLID_884_" class="st1" x1="46" y1="27.8" x2="36.2" y2="35.9"/>
		</g>
		<g id="XMLID_842_">
			<g id="XMLID_878_">
				<g id="XMLID_881_">
					<circle id="XMLID_882_" class="st2" cx="13" cy="36" r="0.6"/>
				</g>
				<g id="XMLID_879_">
					<circle id="XMLID_880_" class="st2" cx="59" cy="36" r="0.6"/>
				</g>
			</g>
			<g id="XMLID_873_">
				<g id="XMLID_876_">
					<circle id="XMLID_877_" class="st2" cx="23.5" cy="55.2" r="0.6"/>
				</g>
				<g id="XMLID_874_">
					<path id="XMLID_875_" class="st2" d="M48.9,16.3c0.3,0.2,0.4,0.6,0.2,0.9c-0.2,0.3-0.6,0.4-0.9,0.2c-0.3-0.2-0.4-0.6-0.2-0.9
						C48.2,16.1,48.6,16.1,48.9,16.3z"/>
				</g>
			</g>
			<g id="XMLID_868_">
				<g id="XMLID_871_">
					<circle id="XMLID_872_" class="st2" cx="15.7" cy="46.8" r="0.6"/>
				</g>
				<g id="XMLID_869_">
					<circle id="XMLID_870_" class="st2" cx="56.3" cy="25.2" r="0.6"/>
				</g>
			</g>
			<g id="XMLID_863_">
				<g id="XMLID_866_">
					<circle id="XMLID_867_" class="st2" cx="48.5" cy="55.2" r="0.6"/>
				</g>
				<g id="XMLID_864_">
					<path id="XMLID_865_" class="st2" d="M23.1,16.3c-0.3,0.2-0.4,0.6-0.2,0.9c0.2,0.3,0.6,0.4,0.9,0.2c0.3-0.2,0.4-0.6,0.2-0.9
						C23.8,16.1,23.4,16.1,23.1,16.3z"/>
				</g>
			</g>
			<g id="XMLID_848_">
				<g id="XMLID_861_">
					<circle id="XMLID_862_" class="st2" cx="56.3" cy="46.8" r="0.6"/>
				</g>
				<g id="XMLID_849_">
					<circle id="XMLID_850_" class="st2" cx="15.7" cy="25.2" r="0.6"/>
				</g>
			</g>
			<g id="XMLID_843_">
				<g id="XMLID_846_">
					<circle id="XMLID_847_" class="st2" cx="36" cy="13.1" r="0.6"/>
				</g>
				<g id="XMLID_844_">
					<circle id="XMLID_845_" class="st2" cx="36" cy="58.9" r="0.6"/>
				</g>
			</g>
		</g>
	</g>
</g>
</svg>
