<?xml version="1.0" encoding="utf-8"?>
<!-- Generator: Adobe Illustrator 14.0.0, SVG Export Plug-In . SVG Version: 6.00 Build 43363)  -->
<!DOCTYPE svg PUBLIC "-//W3C//DTD SVG 1.1//EN" "http://www.w3.org/Graphics/SVG/1.1/DTD/svg11.dtd">
<svg version="1.1" id="Layer_1" xmlns="http://www.w3.org/2000/svg" xmlns:xlink="http://www.w3.org/1999/xlink" x="0px" y="0px"
	 width="600px" height="528.507px" viewBox="0 0 600 528.507" enable-background="new 0 0 600 528.507" xml:space="preserve">
<g>
	<g>
		<g>
			<polygon fill="#FFFFFF" points="349.634,408.799 250.364,408.799 235.589,497.85 366.976,497.85 			"/>
			<path fill="#2A3052" d="M372.291,502.23H230.422l16.23-97.811h106.59L372.291,502.23L372.291,502.23z M240.755,493.47h120.906
				l-15.636-80.291h-91.949L240.755,493.47L240.755,493.47z"/>
		</g>
		<g opacity="0.8">
			<polygon fill="#E1DFE4" points="345.563,408.799 314.598,408.799 314.598,497.85 362.597,497.85 			"/>
		</g>
	</g>
	<g>
		<rect x="4.379" y="4.379" fill="#FFFFFF" width="591.242" height="404.42"/>
		<path fill="#2A3052" d="M600,413.179H0V0h600V413.179L600,413.179z M8.759,404.419h582.482V8.759H8.759V404.419L8.759,404.419z"/>
	</g>
	<g>
		<rect x="32.846" y="29.235" fill="#FFFFFF" width="534.306" height="290.513"/>
		<path fill="#2A3052" d="M571.532,324.127H28.467V24.856h543.065V324.127L571.532,324.127z M37.227,315.369h525.547V33.615H37.227
			V315.369L37.227,315.369z"/>
	</g>
	<g>
		<line fill="#FFFFFF" x1="4.379" y1="344.524" x2="595.621" y2="344.524"/>
		<polygon fill="#2A3052" points="595.621,348.905 4.379,348.905 4.379,340.146 595.621,340.146 595.621,348.905 		"/>
	</g>
	<g>
		<rect x="154.013" y="497.85" fill="#FFFFFF" width="291.972" height="26.277"/>
		<path fill="#2A3052" d="M450.365,528.507H149.634V493.47h300.731V528.507L450.365,528.507z M158.393,519.749h283.213V502.23
			H158.393V519.749L158.393,519.749z"/>
	</g>
	<g>
		<g>
			<path fill="#E88024" d="M81.143,170.028c10.21,0,11.647-5.608,11.647-10.642c0-4.027-0.573-8.053-1.149-12.08
				s-1.152-8.053-1.152-11.937c0-13.229,8.773-18.838,20.997-18.838h2.876v7.909h-2.443c-8.486,0.144-11.505,4.602-11.505,12.368
				c0,3.308,0.574,6.759,1.006,10.21c0.574,3.596,1.149,7.047,1.149,10.931c0.146,9.204-4.026,13.805-10.353,15.531v0.288
				c6.327,1.583,10.499,6.471,10.353,15.675c0,3.883-0.576,7.479-1.149,11.074c-0.433,3.451-1.006,6.903-1.006,10.354
				c0,8.053,3.45,12.367,11.505,12.512h2.443v7.909h-3.02c-11.792,0-20.854-5.177-20.854-19.702c0-3.884,0.577-7.91,1.294-11.793
				c0.434-4.026,1.007-7.91,1.007-11.648c0-4.602-1.437-10.786-11.647-10.786V170.028z"/>
			<path fill="#E88024" d="M154.778,177.363c-10.211,0-11.651,6.185-11.651,10.786c0,3.738,0.577,7.622,1.152,11.648
				c0.576,3.883,1.149,7.909,1.149,11.793c0,14.524-9.059,19.702-20.852,19.702h-3.02v-7.909h2.444
				c8.055-0.145,11.505-4.458,11.505-12.512c0-3.452-0.576-6.903-1.007-10.354c-0.576-3.596-1.149-7.191-1.149-11.074
				c-0.145-9.204,4.027-14.092,10.354-15.675v-0.288c-6.327-1.726-10.499-6.327-10.354-15.531c0-3.884,0.574-7.335,1.149-10.931
				c0.431-3.451,1.007-6.903,1.007-10.21c0-7.766-3.02-12.224-11.505-12.368h-2.444v-7.909h2.875
				c12.226,0,20.997,5.609,20.997,18.838c0,3.884-0.573,7.91-1.149,11.937s-1.152,8.053-1.152,12.08
				c0,5.034,1.44,10.642,11.651,10.642V177.363z"/>
		</g>
		<g>
			<path fill="#E88024" d="M210.631,171.201l54.18-27.906v8.056l-45.656,22.887v0.234l45.656,22.886v8.057l-54.18-27.908V171.201z"
				/>
			<path fill="#E88024" d="M272.413,210.085l32.462-84.657h8.058l-32.696,84.657H272.413z"/>
			<path fill="#E88024" d="M374.473,177.624l-54.18,27.791v-8.057l46.007-22.886v-0.234l-46.007-22.887v-8.056l54.18,27.674V177.624
				z"/>
		</g>
		<g>
			<path fill="#E88024" d="M415.451,170.026c10.211,0,11.648-5.608,11.648-10.641c0-4.028-0.574-8.056-1.149-12.082
				s-1.15-8.053-1.15-11.937c0-13.229,8.772-18.839,20.995-18.839h2.879v7.91h-2.446c-8.484,0.144-11.506,4.603-11.506,12.368
				c0,3.308,0.575,6.759,1.009,10.21c0.573,3.595,1.149,7.047,1.149,10.931c0.143,9.204-4.028,13.806-10.354,15.531v0.288
				c6.326,1.583,10.497,6.471,10.354,15.674c0,3.884-0.576,7.479-1.149,11.075c-0.434,3.451-1.009,6.902-1.009,10.354
				c0,8.053,3.452,12.367,11.506,12.512h2.446v7.908h-3.021c-11.793,0-20.853-5.175-20.853-19.701c0-3.882,0.575-7.91,1.292-11.793
				c0.434-4.026,1.008-7.91,1.008-11.649c0-4.603-1.438-10.785-11.648-10.785V170.026z"/>
			<path fill="#E88024" d="M454.715,232.872c3.164-8.484,7.047-23.872,8.627-34.37l13.95-1.438
				c-3.452,12.224-9.778,28.187-13.806,34.947L454.715,232.872z M469.238,166c-4.888,0-8.342-3.884-8.342-8.916
				c0-5.322,3.596-9.062,8.486-9.062c5.178,0,8.485,3.739,8.485,9.062c0,5.032-3.308,8.916-8.485,8.916H469.238z"/>
			<path fill="#E88024" d="M518.854,177.361c-10.21,0-11.648,6.183-11.648,10.785c0,3.739,0.576,7.623,1.151,11.649
				c0.575,3.883,1.15,7.911,1.15,11.793c0,14.526-9.06,19.701-20.854,19.701h-3.021v-7.908h2.446
				c8.053-0.145,11.505-4.458,11.505-12.512c0-3.452-0.576-6.903-1.008-10.354c-0.575-3.596-1.15-7.191-1.15-11.075
				c-0.144-9.203,4.026-14.092,10.355-15.674v-0.288c-6.329-1.725-10.499-6.327-10.355-15.531c0-3.884,0.575-7.335,1.15-10.931
				c0.432-3.451,1.008-6.903,1.008-10.21c0-7.765-3.021-12.224-11.505-12.368h-2.446v-7.91h2.876
				c12.226,0,20.998,5.609,20.998,18.839c0,3.883-0.575,7.911-1.15,11.937s-1.151,8.053-1.151,12.082
				c0,5.032,1.438,10.641,11.648,10.641V177.361z"/>
		</g>
	</g>
	<g>
		<circle fill="#FFFFFF" cx="299.999" cy="378.142" r="15.328"/>
		<path fill="#2A3052" d="M300,397.851c-10.868,0-19.708-8.842-19.708-19.709s8.84-19.709,19.708-19.709s19.708,8.842,19.708,19.709
			S310.867,397.851,300,397.851L300,397.851z M300,367.194c-6.038,0-10.95,4.909-10.95,10.948c0,6.037,4.912,10.948,10.95,10.948
			c6.037,0,10.95-4.911,10.95-10.948C310.949,372.103,306.036,367.194,300,367.194L300,367.194z"/>
	</g>
</g>
</svg>
