<?xml version="1.0" encoding="utf-8"?>
<!-- Generator: Adobe Illustrator 16.0.0, SVG Export Plug-In . SVG Version: 6.00 Build 0)  -->
<!DOCTYPE svg PUBLIC "-//W3C//DTD SVG 1.1//EN" "http://www.w3.org/Graphics/SVG/1.1/DTD/svg11.dtd">
<svg version="1.1" id="Layer_1" xmlns="http://www.w3.org/2000/svg" xmlns:xlink="http://www.w3.org/1999/xlink" x="0px" y="0px"
	 width="83.859px" height="83.86px" viewBox="0 0 83.859 83.86" enable-background="new 0 0 83.859 83.86" xml:space="preserve">
<g>
	<g>
		<g>
			<g>
				<circle fill="#F28021" cx="41.93" cy="41.93" r="41.93"/>
			</g>
		</g>
		<g>
			<g>
				<circle fill="#FFFFFF" cx="41.929" cy="41.93" r="27.458"/>
			</g>
		</g>
		<g>
			<g>
				<path fill="#F28021" d="M41.93,66.174c-13.368,0-24.243-10.876-24.243-24.244S28.562,17.687,41.93,17.687
					c13.367,0,24.241,10.875,24.241,24.243S55.296,66.174,41.93,66.174z M41.93,19.294c-12.481,0-22.636,10.154-22.636,22.636
					S29.448,64.566,41.93,64.566c12.48,0,22.634-10.155,22.634-22.637S54.41,19.294,41.93,19.294z"/>
			</g>
		</g>
	</g>
	<g>
		<g>
			<path fill="#F28021" d="M41.688,56.461c-0.666,0-1.206-0.54-1.206-1.206V38.439c-0.252-2.348,0.242-6.445,3.673-7.269
				c0.648-0.154,1.298,0.244,1.454,0.892c0.156,0.647-0.244,1.299-0.891,1.454c-2.232,0.535-1.836,4.679-1.831,4.721l0.008,0.136
				v16.882C42.894,55.921,42.354,56.461,41.688,56.461z"/>
		</g>
		<g>
			<path fill="#F28021" d="M41.487,48.956c-0.385,0-0.764-0.185-0.998-0.526c-0.034-0.048-3.319-4.796-6.479-3.483
				c-0.615,0.256-1.321-0.037-1.576-0.652c-0.255-0.615,0.037-1.32,0.652-1.576c4.966-2.058,9.218,4.094,9.397,4.356
				c0.374,0.55,0.23,1.299-0.32,1.673C41.957,48.889,41.721,48.956,41.487,48.956z"/>
		</g>
		<g>
			<path fill="#F28021" d="M41.587,45.138c-0.233,0-0.469-0.067-0.676-0.208c-0.551-0.374-0.694-1.124-0.32-1.675
				c0.179-0.263,4.428-6.416,9.397-4.355c0.615,0.256,0.907,0.961,0.652,1.576c-0.255,0.615-0.961,0.907-1.576,0.652
				c-3.125-1.298-6.445,3.433-6.478,3.48C42.353,44.952,41.973,45.138,41.587,45.138z"/>
		</g>
		<g>
			<polygon fill="#F28021" points="40.783,31.371 46.209,30.97 44.703,35.793 			"/>
		</g>
		<g>
			<polygon fill="#F28021" points="50.725,37.764 53.053,42.682 48.012,43.012 			"/>
		</g>
		<g>
			<polygon fill="#F28021" points="34.941,46.75 30.082,44.301 33.857,40.943 			"/>
		</g>
	</g>
</g>
</svg>
