<?xml version="1.0" encoding="utf-8"?>
<!-- Generator: Adobe Illustrator 16.0.0, SVG Export Plug-In . SVG Version: 6.00 Build 0)  -->
<!DOCTYPE svg PUBLIC "-//W3C//DTD SVG 1.1//EN" "http://www.w3.org/Graphics/SVG/1.1/DTD/svg11.dtd">
<svg version="1.1" id="Layer_1" xmlns="http://www.w3.org/2000/svg" xmlns:xlink="http://www.w3.org/1999/xlink" x="0px" y="0px"
	 width="83.857px" height="83.86px" viewBox="0 0 83.857 83.86" enable-background="new 0 0 83.857 83.86" xml:space="preserve">
<g>
	<g>
		<g>
			<g>
				<circle fill="#F28021" cx="41.929" cy="41.93" r="41.929"/>
			</g>
		</g>
		<g>
			<g>
				<circle fill="#FFFFFF" cx="41.93" cy="41.93" r="27.459"/>
			</g>
		</g>
		<g>
			<g>
				<path fill="#F28021" d="M41.93,66.174c-13.368,0-24.243-10.876-24.243-24.244c0-13.368,10.875-24.243,24.243-24.243
					S66.173,28.562,66.173,41.93C66.173,55.298,55.297,66.174,41.93,66.174z M41.93,19.294c-12.481,0-22.636,10.154-22.636,22.636
					c0,12.482,10.154,22.637,22.636,22.637S64.565,54.412,64.565,41.93C64.565,29.448,54.411,19.294,41.93,19.294z"/>
			</g>
		</g>
	</g>
	<g>
		<g>
			<path fill="#F28021" d="M41.93,55.255c-6.724,0-12.194-5.47-12.194-12.193c0-0.666,0.54-1.206,1.206-1.206
				s1.206,0.54,1.206,1.206c0,5.394,4.388,9.781,9.782,9.781c5.393,0,9.78-4.388,9.78-9.781c0-0.666,0.54-1.206,1.206-1.206
				s1.206,0.54,1.206,1.206C54.122,49.785,48.652,55.255,41.93,55.255z"/>
		</g>
		<g>
			<g>
				<circle fill="#F28021" cx="35.397" cy="35.894" r="2.411"/>
			</g>
			<g>
				<circle fill="#F28021" cx="48.461" cy="35.894" r="2.412"/>
			</g>
		</g>
	</g>
</g>
</svg>
