<?xml version="1.0" encoding="utf-8"?>
<!-- Generator: Adobe Illustrator 18.1.0, SVG Export Plug-In . SVG Version: 6.00 Build 0)  -->
<svg version="1.1" id="Layer_1" xmlns="http://www.w3.org/2000/svg" xmlns:xlink="http://www.w3.org/1999/xlink" x="0px" y="0px"
	 viewBox="-408.7 78.4 102.2 31" enable-background="new -408.7 78.4 102.2 31" xml:space="preserve">
<path fill="#FFFFFF" d="M-367.3,85.1c-0.7,0-1.4,0.1-2,0.3c-0.6,0.2-1.1,0.4-1.6,0.7c-0.5,0.3-0.9,0.7-1.3,1.1
	c-0.1,0.1-0.2,0.2-0.3,0.3v-2h-4.9V104h4.9V93.6c0-1.3,0.3-2.3,1-3c0.7-0.7,1.5-1,2.6-1c1.1,0,1.9,0.3,2.5,1
	c0.6,0.7,0.9,1.7,0.9,2.9V104h4.9V92.3c0-2.2-0.6-3.9-1.7-5.2C-363.5,85.8-365.1,85.1-367.3,85.1L-367.3,85.1z M-349.3,85.2
	c-1.5,0-2.8,0.1-3.8,0.4c-1,0.3-2.1,0.6-3.1,1.1l-0.3,0.1l1.4,4l0.4-0.2c0.8-0.3,1.6-0.6,2.3-0.8c0.8-0.2,1.6-0.3,2.6-0.3
	c1.3,0,2.3,0.3,3,0.9c0.6,0.5,1,1.3,1,2.3c-0.6-0.2-1.1-0.3-1.7-0.4c-0.8-0.1-1.7-0.2-2.8-0.2c-1.1,0-2.1,0.1-3,0.4
	c-0.9,0.2-1.7,0.6-2.4,1.1c-0.7,0.5-1.2,1.2-1.6,2c-0.4,0.8-0.6,1.7-0.6,2.7v0.1c0,1,0.2,1.8,0.6,2.5c0.4,0.7,0.9,1.4,1.5,1.8
	c0.6,0.5,1.3,0.9,2.1,1.1c0.8,0.2,1.6,0.4,2.5,0.4c1.4,0,2.6-0.3,3.6-0.8c0.7-0.3,1.2-0.8,1.8-1.2v1.6h4.8V93.1c0-2.5-0.7-4.4-2-5.8
	C-344.5,85.9-346.5,85.2-349.3,85.2z M-350.1,100.6c-0.9,0-1.6-0.2-2.2-0.6c-0.5-0.4-0.8-0.9-0.8-1.6v-0.1c0-0.7,0.3-1.3,0.9-1.7
	c0.7-0.4,1.6-0.7,2.8-0.7c0.8,0,1.5,0.1,2.2,0.2c0.6,0.1,1.1,0.2,1.5,0.4v0.7c0,0.5-0.1,1-0.3,1.4c-0.2,0.4-0.5,0.8-0.9,1
	c-0.4,0.3-0.9,0.5-1.4,0.7C-348.9,100.5-349.5,100.6-350.1,100.6L-350.1,100.6z M-316,97.9l-4.8-12.4h-5.2l7.6,18.1
	c-0.3,0.6-0.6,1.1-0.9,1.3c-0.3,0.2-0.7,0.4-1.2,0.4c-0.4,0-0.8-0.1-1.1-0.2c-0.4-0.1-0.7-0.3-1.1-0.5l-0.4-0.2l-1.7,3.7l0.3,0.2
	c0.6,0.3,1.3,0.6,2,0.8c0.7,0.2,1.5,0.3,2.4,0.3c0.8,0,1.4-0.1,2-0.3c0.6-0.2,1.2-0.5,1.7-0.9c0.5-0.4,1-1,1.4-1.6
	c0.4-0.6,0.8-1.4,1.1-2.4l7.3-18.8h-5.1L-316,97.9L-316,97.9z"/>
<g>
	<path fill="#FFFFFF" d="M-384.8,85.5h4.9V104h-4.9V85.5z"/>
	<circle fill="#FFFFFF" cx="-382.3" cy="81.1" r="2.7"/>
</g>
<path fill="#FFFFFF" d="M-388.8,92.7c-0.5-0.5-1-0.9-1.6-1.3c-0.4-0.2-0.8-0.4-1.3-0.6l-0.3-0.1l0.2-0.2c0.2-0.1,0.4-0.3,0.6-0.4
	c0.5-0.3,0.9-0.8,1.2-1.2c0.3-0.5,0.6-1,0.8-1.6c0.2-0.6,0.3-1.3,0.3-2.1v-0.1c0-1.7-0.6-3.2-1.8-4.3c-1.5-1.5-3.8-2.3-6.7-2.3
	h-11.5V104h11.8c1.4,0,2.7-0.2,3.9-0.5c1.2-0.3,2.2-0.8,3-1.3c0.8-0.6,1.5-1.4,2-2.2c0.5-0.9,0.7-1.9,0.7-3.1v-0.1
	c0-0.9-0.1-1.7-0.4-2.3C-388,93.8-388.3,93.2-388.8,92.7L-388.8,92.7z M-403.8,88.8v-6h6.1c1.4,0,2.4,0.3,3.1,0.8
	c0.7,0.5,1,1.2,1,2.1v0.1c0,1.1-0.4,1.8-1.2,2.3c-0.8,0.5-1.9,0.8-3.3,0.8h-5.7C-403.8,89-403.8,88.8-403.8,88.8z M-392.2,96.4
	c0,1.1-0.4,1.8-1.2,2.4c-0.8,0.5-1.9,0.8-3.4,0.8h-7v-6.4h6.7c1.7,0,2.9,0.3,3.7,0.8C-392.6,94.6-392.2,95.3-392.2,96.4L-392.2,96.4
	L-392.2,96.4z M-327.7,85.1c-1.7-0.1-3.1,0.3-4.2,1.2c-0.7,0.5-1.3,1.2-1.8,1.9v-2.8h-4.9V104h4.9v-7.1c0-1.1,0.1-2.1,0.4-3
	c0.3-0.8,0.7-1.5,1.2-2.1c0.5-0.5,1.1-0.9,1.8-1.2c0.7-0.3,1.5-0.4,2.3-0.4h0.6v-5.1L-327.7,85.1L-327.7,85.1z"/>
</svg>
