<?xml version="1.0" encoding="utf-8"?>
<!-- Generator: Adobe Illustrator 19.0.0, SVG Export Plug-In . SVG Version: 6.00 Build 0)  -->
<svg version="1.1" id="Layer_1" xmlns="http://www.w3.org/2000/svg" xmlns:xlink="http://www.w3.org/1999/xlink" x="0px" y="0px"
	 viewBox="0 0 72 72" style="enable-background:new 0 0 72 72;" xml:space="preserve">
<style type="text/css">
	.st0{fill:none;stroke:#293052;stroke-width:0.9999;stroke-miterlimit:10;}
	.st1{fill:none;stroke:#293052;stroke-width:0.9999;stroke-linecap:round;stroke-miterlimit:10;}
	.st2{fill:none;stroke:#293052;stroke-width:0.9999;stroke-linecap:round;stroke-linejoin:round;stroke-miterlimit:10;}
</style>
<g id="XMLID_282_">
	<path id="XMLID_283_" class="st0" d="M71.7,21L38,44c-1.2,0.8-2.8,0.8-4,0L0.3,21"/>
	<path id="XMLID_284_" class="st0" d="M69.5,71h-67c-1.1,0-2-0.9-2-2V18.8c0-1.1,0.9-2,2-2h67c1.1,0,2,0.9,2,2V69
		C71.5,70.1,70.6,71,69.5,71z"/>
	<path id="XMLID_285_" class="st0" d="M18.8,17V6c0-2.8,2.2-5,5-5h24.3c2.8,0,5,2.2,5,5v11"/>
	<g id="XMLID_289_">
		<g id="XMLID_314_">
			<g id="XMLID_441_">
				<line id="XMLID_528_" class="st1" x1="40.5" y1="48.2" x2="62" y2="48.2"/>
				<line id="XMLID_633_" class="st1" x1="46.7" y1="51.5" x2="63.7" y2="51.5"/>
				<line id="XMLID_851_" class="st1" x1="66" y1="54.8" x2="40.5" y2="54.8"/>
			</g>
			<path id="XMLID_852_" class="st2" d="M41.3,46.5v-2.2l-6.5,6.5c-0.4,0.4-0.4,1,0,1.4l6.5,6.5v-2.4"/>
		</g>
		<g id="XMLID_853_">
			<g id="XMLID_854_">
				<line id="XMLID_857_" class="st1" x1="31.5" y1="58.6" x2="10" y2="58.6"/>
				<line id="XMLID_856_" class="st1" x1="25.3" y1="61.9" x2="8.3" y2="61.9"/>
				<line id="XMLID_855_" class="st1" x1="6" y1="65.1" x2="31.5" y2="65.1"/>
			</g>
			<path id="XMLID_858_" class="st2" d="M30.7,56.8v-2.2l6.5,6.5c0.4,0.4,0.4,1,0,1.4l-6.5,6.5v-2.4"/>
		</g>
	</g>
	<circle id="XMLID_859_" class="st0" cx="36" cy="38.9" r="1.9"/>
</g>
</svg>
