<?xml version="1.0" encoding="utf-8"?>
<!-- Generator: Adobe Illustrator 19.0.0, SVG Export Plug-In . SVG Version: 6.00 Build 0)  -->
<svg version="1.1" id="Layer_1" xmlns="http://www.w3.org/2000/svg" xmlns:xlink="http://www.w3.org/1999/xlink" x="0px" y="0px"
	 viewBox="0 0 72 72" style="enable-background:new 0 0 72 72;" xml:space="preserve">
<style type="text/css">
	.st0{fill:none;stroke:#283052;stroke-linecap:round;stroke-linejoin:round;}
</style>
<g id="XMLID_12_">
	<path id="XMLID_4_" class="st0" d="M32.9,51c0,6.6-5.3,11.9-11.9,11.9c-6.6,0-11.9-5.3-11.9-11.9c0-6.6,5.3-11.9,11.9-11.9
		C27.5,39.1,32.9,44.4,32.9,51z M21,45.2c-3.2,0-5.8,2.6-5.8,5.8s2.6,5.8,5.8,5.8c3.2,0,5.8-2.6,5.8-5.8S24.2,45.2,21,45.2z
		 M41.4,52.7v-3.4h-3.9c-0.1-1-0.3-1.9-0.5-2.8l3.6-1.4l-1.2-3.1l-3.6,1.4c-0.5-1-1.2-2-1.9-2.9l2.8-2.8l-2.4-2.4l-2.8,2.8
		c-0.7-0.6-1.5-1.1-2.4-1.6l1.6-3.6l-3.1-1.3L26,35.1c-1.1-0.3-2.2-0.6-3.4-0.7v-3.9h-3.4v3.9c-1,0.1-1.9,0.3-2.8,0.5L15,31.3
		l-3.1,1.2l1.4,3.6c-1,0.5-2,1.2-2.9,1.9l-2.8-2.8l-2.4,2.4l2.8,2.8c-0.6,0.7-1.1,1.5-1.6,2.4l-3.6-1.6l-1.3,3.1l3.6,1.6
		c-0.3,1.1-0.6,2.2-0.7,3.4H0.5v3.4h3.9c0.1,1,0.3,1.9,0.5,2.8l-3.6,1.4l1.2,3.1l3.6-1.4c0.5,1,1.2,2,1.9,2.9l-2.8,2.8l2.4,2.4
		l2.8-2.8c0.7,0.6,1.5,1.1,2.4,1.6l-1.6,3.6l3.1,1.3l1.6-3.6c1.1,0.3,2.2,0.6,3.4,0.7v3.9h3.4v-3.9c1-0.1,1.9-0.3,2.8-0.5l1.4,3.6
		l3.1-1.2l-1.4-3.6c1-0.5,2-1.2,2.9-1.9l2.8,2.8l2.4-2.4l-2.8-2.8c0.6-0.7,1.1-1.5,1.6-2.4l3.6,1.6l1.3-3.1l-3.6-1.6
		c0.3-1.1,0.6-2.2,0.7-3.4H41.4z M54.1,17.9C48.5,17.9,44,22.4,44,28c0,5.6,4.5,10.1,10.1,10.1c5.6,0,10.1-4.5,10.1-10.1
		C64.2,22.4,59.7,17.9,54.1,17.9z M54.1,23.1c-2.7,0-4.9,2.2-4.9,4.9c0,2.7,2.2,4.9,4.9,4.9c2.7,0,4.9-2.2,4.9-4.9
		C59,25.3,56.8,23.1,54.1,23.1z M71.5,29.4v-2.9h-3.3c-0.1-0.8-0.2-1.6-0.5-2.4l3.1-1.2l-1-2.7l-3.1,1.2c-0.5-0.9-1-1.7-1.6-2.5
		l2.3-2.4l-2-2L63,17c-0.6-0.5-1.3-1-2-1.4l1.3-3.1l-2.6-1.1l-1.3,3c-0.9-0.3-1.9-0.5-2.9-0.6v-3.3h-2.9v3.3
		c-0.8,0.1-1.6,0.2-2.4,0.5l-1.2-3.1l-2.7,1.1l1.2,3.1c-0.9,0.5-1.7,1-2.5,1.6l-2.3-2.4l-2,2l2.3,2.4c-0.5,0.6-1,1.3-1.4,2l-3-1.3
		l-1.1,2.6l3,1.3c-0.3,0.9-0.5,1.9-0.6,2.9h-3.3v2.9H40c0.1,0.8,0.2,1.6,0.5,2.4l-3.1,1.2l1,2.7l3.1-1.2c0.5,0.9,1,1.7,1.6,2.5
		l-2.3,2.4l2,2l2.3-2.4c0.6,0.5,1.3,1,2,1.4l-1.3,3.1l2.6,1.1l1.3-3c0.9,0.3,1.9,0.5,2.9,0.6v3.3h2.9v-3.3c0.8-0.1,1.6-0.2,2.4-0.5
		l1.2,3.1l2.7-1.1l-1.2-3.1c0.9-0.5,1.7-1,2.5-1.6l2.3,2.4l2-2L65,37c0.5-0.6,1-1.3,1.4-2l3,1.3l1.1-2.6l-3-1.3
		c0.3-0.9,0.5-1.9,0.6-2.9H71.5z M22.1,6.4c-4.5,0-8.2,3.7-8.2,8.2c0,4.5,3.7,8.2,8.2,8.2c4.5,0,8.2-3.7,8.2-8.2
		C30.2,10.1,26.6,6.4,22.1,6.4z M22.1,10.6c-2.2,0-4,1.8-4,4c0,2.2,1.8,4,4,4s4-1.8,4-4C26,12.4,24.2,10.6,22.1,10.6z M36.1,15.8
		v-2.3h-2.7c-0.1-0.7-0.2-1.3-0.4-1.9l2.5-1l-0.8-2.2l-2.5,1c-0.4-0.7-0.8-1.4-1.3-2l1.9-1.9l-1.6-1.6l-1.9,1.9
		c-0.5-0.4-1.1-0.8-1.6-1.1l1.1-2.5l-2.1-0.9l-1.1,2.5c-0.7-0.2-1.5-0.4-2.3-0.5V0.5h-2.3v2.7c-0.7,0.1-1.3,0.2-1.9,0.4l-1-2.5
		l-2.2,0.9l1,2.5c-0.7,0.4-1.4,0.8-2,1.3l-1.9-1.9l-1.6,1.6l1.9,1.9c-0.4,0.5-0.8,1.1-1.1,1.6L9.6,7.9L8.7,10l2.5,1.1
		c-0.2,0.7-0.4,1.5-0.5,2.3H8v2.3h2.7c0.1,0.7,0.2,1.3,0.4,1.9l-2.5,1l0.8,2.2l2.5-1c0.4,0.7,0.8,1.4,1.3,2l-1.9,1.9l1.6,1.6
		l1.9-1.9c0.5,0.4,1.1,0.8,1.6,1.1l-1.1,2.5l2.1,0.9l1.1-2.5c0.7,0.2,1.5,0.4,2.3,0.5v2.7h2.3V26c0.7-0.1,1.3-0.2,1.9-0.4l1,2.5
		l2.1-0.8l-1-2.5c0.7-0.4,1.4-0.8,2-1.3l1.9,1.9l1.6-1.6l-1.9-1.9c0.4-0.5,0.8-1.1,1.1-1.6l2.5,1.1l0.9-2.1l-2.5-1.1
		c0.2-0.7,0.4-1.5,0.5-2.3H36.1z"/>
</g>
</svg>
