<?xml version="1.0" encoding="utf-8"?>
<!-- Generator: Adobe Illustrator 19.0.0, SVG Export Plug-In . SVG Version: 6.00 Build 0)  -->
<svg version="1.1" id="Layer_1" xmlns="http://www.w3.org/2000/svg" xmlns:xlink="http://www.w3.org/1999/xlink" x="0px" y="0px"
	 viewBox="0 0 72 72" style="enable-background:new 0 0 72 72;" xml:space="preserve">
<style type="text/css">
	.st0{fill:#232D61;}
	.st1{fill:none;stroke:#232D61;}
</style>
<g id="XMLID_888_">
	<g id="XMLID_902_">
		<g id="XMLID_23_">
			<path id="XMLID_24_" class="st0" d="M35.8,5c17.1,0,31,13.9,31,31c0,17.1-13.9,31-31,31c-17.1,0-31-13.9-31-31
				C4.8,18.9,18.7,5,35.8,5 M35.8,4c-17.7,0-32,14.3-32,32c0,17.7,14.3,32,32,32c17.7,0,32-14.3,32-32C67.8,18.3,53.4,4,35.8,4
				L35.8,4z"/>
		</g>
	</g>
	<g id="XMLID_896_">
		<g id="XMLID_18_">
			<path id="XMLID_19_" class="st0" d="M35.8,21.5c8,0,14.5,6.5,14.5,14.5c0,8-6.5,14.5-14.5,14.5c-8,0-14.5-6.5-14.5-14.5
				C21.2,28,27.8,21.5,35.8,21.5 M35.8,20.5c-8.6,0-15.5,6.9-15.5,15.5c0,8.6,6.9,15.5,15.5,15.5c8.6,0,15.5-6.9,15.5-15.5
				C51.3,27.4,44.3,20.5,35.8,20.5L35.8,20.5z"/>
		</g>
	</g>
	<g id="XMLID_893_">
		<line id="XMLID_895_" class="st1" x1="35.8" y1="0" x2="35.8" y2="10"/>
		<line id="XMLID_894_" class="st1" x1="35.8" y1="62" x2="35.8" y2="72"/>
	</g>
	<line id="XMLID_892_" class="st1" x1="72" y1="36" x2="62" y2="36"/>
	<line id="XMLID_891_" class="st1" x1="57" y1="36" x2="15" y2="36"/>
	<line id="XMLID_890_" class="st1" x1="35.8" y1="57" x2="35.8" y2="15"/>
	<line id="XMLID_889_" class="st1" x1="10" y1="36" x2="0" y2="36"/>
</g>
</svg>
