<?xml version="1.0" encoding="utf-8"?>
<!-- Generator: Adobe Illustrator 19.0.0, SVG Export Plug-In . SVG Version: 6.00 Build 0)  -->
<svg version="1.1" id="Layer_1" xmlns="http://www.w3.org/2000/svg" xmlns:xlink="http://www.w3.org/1999/xlink" x="0px" y="0px"
	 viewBox="0 0 50 50" style="enable-background:new 0 0 50 50;" xml:space="preserve">
<style type="text/css">
	.st0{fill:none;stroke:white;stroke-width:0.6731;}
	.st1{fill:none;stroke:white;stroke-width:2;stroke-miterlimit:10;}
</style>
<g>
	<g>
		<g id="XMLID_98_">
			<path id="XMLID_99_" class="st0" d="M38.2,33v13.6c0,1.3-1.1,2.4-2.4,2.4H14.2c-1.3,0-2.4-1.1-2.4-2.4V33"/>
		</g>
		<line id="XMLID_97_" class="st0" x1="34.5" y1="49" x2="34.5" y2="33"/>
		<line id="XMLID_96_" class="st0" x1="28.5" y1="49" x2="28.5" y2="33"/>
		<rect id="XMLID_95_" x="9.5" y="4.2" class="st0" width="31.1" height="7"/>
		<g id="XMLID_93_">
			<path id="XMLID_94_" class="st0" d="M44.3,31.1c0,1-0.9,1.9-1.9,1.9H7.6c-1,0-1.9-0.9-1.9-1.9V2.9c0-1,0.9-1.9,1.9-1.9h34.8
				c1,0,1.9,0.9,1.9,1.9V31.1z"/>
		</g>
		<rect id="XMLID_92_" x="9.5" y="14.3" class="st0" width="8.8" height="3.7"/>
		<rect id="XMLID_91_" x="20.6" y="14.3" class="st0" width="8.8" height="3.7"/>
		<rect id="XMLID_90_" x="31.8" y="14.3" class="st0" width="8.8" height="3.7"/>
		<rect id="XMLID_89_" x="9.5" y="20.3" class="st0" width="8.8" height="3.7"/>
		<rect id="XMLID_88_" x="20.6" y="20.3" class="st0" width="8.8" height="3.7"/>
		<rect id="XMLID_87_" x="31.8" y="20.3" class="st0" width="8.8" height="3.7"/>
		<rect id="XMLID_86_" x="9.5" y="26.4" class="st0" width="8.8" height="3.7"/>
		<rect id="XMLID_85_" x="20.6" y="26.4" class="st0" width="8.8" height="3.7"/>
		<rect id="XMLID_84_" x="31.8" y="26.4" class="st0" width="8.8" height="3.7"/>
	</g>
	<g id="XMLID_82_">
		<path id="XMLID_83_" class="st1" d="M38.2,33v13.6c0,1.3-1.1,2.4-2.4,2.4H14.2c-1.3,0-2.4-1.1-2.4-2.4V33"/>
	</g>
	<line id="XMLID_81_" class="st1" x1="34.5" y1="49" x2="34.5" y2="33"/>
	<line id="XMLID_80_" class="st1" x1="28.5" y1="49" x2="28.5" y2="33"/>
	<rect id="XMLID_79_" x="9.5" y="4.2" class="st1" width="31.1" height="7"/>
	<g id="XMLID_77_">
		<path id="XMLID_78_" class="st1" d="M44.3,31.1c0,1-0.9,1.9-1.9,1.9H7.6c-1,0-1.9-0.9-1.9-1.9V2.9c0-1,0.9-1.9,1.9-1.9h34.8
			c1,0,1.9,0.9,1.9,1.9V31.1z"/>
	</g>
	<rect id="XMLID_76_" x="9.5" y="14.3" class="st1" width="8.8" height="3.7"/>
	<rect id="XMLID_75_" x="20.6" y="14.3" class="st1" width="8.8" height="3.7"/>
	<rect id="XMLID_74_" x="31.8" y="14.3" class="st1" width="8.8" height="3.7"/>
	<path class="st1" d="M9.5,20.3h8.8V24H9.5V20.3z"/>
	<rect id="XMLID_72_" x="20.6" y="20.3" class="st1" width="8.8" height="3.7"/>
	<rect id="XMLID_71_" x="31.8" y="20.3" class="st1" width="8.8" height="3.7"/>
	<rect id="XMLID_70_" x="9.5" y="26.4" class="st1" width="8.8" height="3.7"/>
	<rect id="XMLID_69_" x="20.6" y="26.4" class="st1" width="8.8" height="3.7"/>
	<rect id="XMLID_68_" x="31.8" y="26.4" class="st1" width="8.8" height="3.7"/>
</g>
</svg>
