<?xml version="1.0" encoding="utf-8"?>
<!-- Generator: Adobe Illustrator 19.0.0, SVG Export Plug-In . SVG Version: 6.00 Build 0)  -->
<svg version="1.1" id="Layer_1" xmlns="http://www.w3.org/2000/svg" xmlns:xlink="http://www.w3.org/1999/xlink" x="0px" y="0px"
	 viewBox="0 0 72 72" style="enable-background:new 0 0 72 72;" xml:space="preserve">
<style type="text/css">
	.st0{fill:none;stroke:#293052;stroke-linecap:round;stroke-linejoin:round;}
</style>
<g id="XMLID_1178_">
	<path id="XMLID_1181_" class="st0" d="M28.1,8.2c-0.8-1.9-2.2-3.9-4-6l1.5-0.7c2.4-1,4.2-1.3,5.5-0.8c1.3,0.5,2.5,2.1,3.6,4.8
		c1.6,3.7,2.2,6.7,1.6,8.9c-0.5,2.2-2.2,3.9-5.1,5.3l-1.3,0.6C30.4,15.9,29.8,11.9,28.1,8.2z"/>
	<path id="XMLID_1180_" class="st0" d="M51.8,62.9c-1.7-3.9-4.2-7.2-7.6-9.8l1.6-0.7c5.1-2.2,9.2,0.2,12.3,7.3
		c1.1,2.5,1.5,4.4,1,5.8c-0.4,1.3-1.7,2.4-3.8,3.3l-1.7,0.8C53.4,67.4,52.8,65.2,51.8,62.9z"/>
	<path id="XMLID_1179_" class="st0" d="M28.9,58.6c-3-4.7-5.8-9.6-8.2-15.1c-2.3-5.4-4.2-10.6-5.6-15.9c-1.3-5.3-2.1-10.5-2.5-15.8
		c2.5-3.5,5.7-6.4,9.1-8.7c1.6,1.7,2.9,3.6,3.9,5.8c1.6,3.6,2.1,7.7,1.7,12.3l-0.8,0.3c-3.5,1.5-2.8,7.9,2.1,19
		c4.8,10.7,8.9,15.4,12.4,13.8l0.8-0.3c3.5,3,6,6.3,7.5,9.8c0.9,2,1.6,4.2,2.1,6.6c-4.5,1.1-8.6,1.3-12.6,0.8
		C35.2,67.4,31.9,63.1,28.9,58.6z"/>
</g>
</svg>
