<?xml version="1.0" encoding="utf-8"?>
<!-- Generator: Adobe Illustrator 19.0.0, SVG Export Plug-In . SVG Version: 6.00 Build 0)  -->
<svg version="1.1" id="Layer_1" xmlns="http://www.w3.org/2000/svg" xmlns:xlink="http://www.w3.org/1999/xlink" x="0px" y="0px"
	 viewBox="0 0 72 72" style="enable-background:new 0 0 72 72;" xml:space="preserve">
<style type="text/css">
	.st0{fill:none;stroke:#293052;stroke-linecap:round;stroke-linejoin:round;}
	.st1{fill:#293052;}
</style>
<g id="XMLID_1155_">
	<g id="XMLID_1157_">
		<path id="XMLID_1169_" class="st0" d="M63.5,32.8c-0.2,0.1-0.4,0.1-0.6,0.1c-0.9,0-1.7-0.7-1.7-1.6C61.2,17.8,50,6.8,36,6.8
			c-13.9,0-25.2,10.9-25.2,24.5c0,0.9-0.8,1.6-1.7,1.6c-0.2,0-0.5-0.1-0.7-0.1c-3.2,1.8-5.5,5.3-5.5,9.2c0,5.9,4.9,10.5,10.8,10.6
			c1.5,2.8,3.2,5,5.1,7.1c1.1,1.3,2.3,2.7,3.4,4.4c3.6,5.2,8.3,6.8,11.3,7.2l1.2,0.2c0,0,0.3,0.1,1.1,0h0.2c0.6,0,0.9,0,0.9,0
			l1.2-0.1l0,0c3-0.5,7.7-2.1,11.3-7.2c1.1-1.6,2.3-2.9,3.4-4.4c1.8-2.2,3.3-4.3,4.9-7.2l0.3,0.1c6.1,0,10.9-4.8,10.9-10.6
			C69.1,38.1,66.9,34.6,63.5,32.8z M32.6,57.8v2.6h9.3v-5h-9.3v1.4l-3.2-0.4c-3.5-0.5-6.1-2.5-6.1-2.5L14,45.8
			c-0.1-0.2-0.1-0.4-0.2-0.6V34l2-2.8c7.6-2.7,12.2-14.4,12.2-14.4c8.3,13.1,27.7,15.7,27.7,15.7c0.2,2.1,1.3,4.4,2.3,6.1v6.2"/>
		<g id="XMLID_1158_">
			<g id="XMLID_1164_">
				<path id="XMLID_29_" class="st1" d="M27.6,40.9c0.4,0,0.7,0.3,0.7,0.6c0,0.4-0.3,0.6-0.7,0.6s-0.7-0.3-0.7-0.6
					C27,41.2,27.3,40.9,27.6,40.9 M27.6,39.9c-0.9,0-1.7,0.7-1.7,1.6c0,0.9,0.8,1.6,1.7,1.6s1.7-0.7,1.7-1.6
					C29.3,40.6,28.6,39.9,27.6,39.9L27.6,39.9z"/>
			</g>
			<g id="XMLID_1159_">
				<path id="XMLID_25_" class="st1" d="M44.5,40.9c0.4,0,0.7,0.3,0.7,0.6c0,0.4-0.3,0.6-0.7,0.6c-0.4,0-0.7-0.3-0.7-0.6
					C43.8,41.2,44.1,40.9,44.5,40.9 M44.5,39.9c-0.9,0-1.7,0.7-1.7,1.6c0,0.9,0.8,1.6,1.7,1.6c0.9,0,1.7-0.7,1.7-1.6
					C46.2,40.6,45.4,39.9,44.5,39.9L44.5,39.9z"/>
			</g>
		</g>
	</g>
	<path id="XMLID_1156_" class="st0" d="M5.8,27.8c0-16.2,13.6-27.3,30.3-27.3s30.3,11,30.3,27.3"/>
</g>
</svg>
