<?xml version="1.0" encoding="utf-8"?>
<!-- Generator: Adobe Illustrator 19.0.0, SVG Export Plug-In . SVG Version: 6.00 Build 0)  -->
<svg version="1.1" id="Layer_1" xmlns="http://www.w3.org/2000/svg" xmlns:xlink="http://www.w3.org/1999/xlink" x="0px" y="0px"
	 viewBox="0 0 72 72" style="enable-background:new 0 0 72 72;" xml:space="preserve">
<style type="text/css">
	.st0{fill:none;stroke:#283052;stroke-width:0.9959;stroke-linecap:round;stroke-linejoin:round;}
	.st1{fill:none;stroke:#283052;stroke-linecap:round;stroke-linejoin:round;}
</style>
<g id="XMLID_831_">
	<g id="XMLID_828_">
		<path id="XMLID_821_" class="st0" d="M5.2,36C5.2,19,19,5.3,36,5.3"/>
		<path id="XMLID_279_" class="st0" d="M66.8,36C66.8,52.9,53,66.6,36,66.6"/>
		<polyline id="XMLID_822_" class="st0" points="35.7,71.5 30.8,66.6 35.7,61.7 		"/>
		<polyline id="XMLID_827_" class="st0" points="36.3,10.3 41.2,5.4 36.3,0.5 		"/>
	</g>
	<g id="XMLID_1_">
		<path id="XMLID_2_" class="st1" d="M40.8,42.6c0-1.1-0.4-2-1.2-2.8c-0.8-0.8-2-1.5-3.8-2.1c-2.4-0.7-4.3-1.7-5.5-2.9
			c-1.2-1.2-1.9-2.9-1.9-4.9c0-2,0.6-3.6,1.7-4.9c1.1-1.3,2.7-2,4.7-2.3v-4h2.9v4c2,0.3,3.6,1.2,4.7,2.6c1.1,1.4,1.7,3.4,1.7,5.8
			h-3.5c0-1.6-0.4-3-1.1-4c-0.8-1-1.8-1.5-3.2-1.5c-1.4,0-2.5,0.4-3.2,1.1c-0.7,0.7-1.1,1.8-1.1,3c0,1.2,0.4,2.1,1.1,2.8
			c0.7,0.7,2,1.4,3.9,2.1c2.5,0.8,4.3,1.8,5.5,3c1.2,1.2,1.8,2.8,1.8,4.8c0,2.1-0.6,3.7-1.9,4.9c-1.2,1.2-2.9,2-5.1,2.2v3.5h-2.8
			v-3.5c-2.1-0.2-3.8-1-5.1-2.3s-2-3.2-1.9-5.7l0-0.1h3.4c0,1.9,0.5,3.2,1.4,4c0.9,0.8,2.1,1.2,3.4,1.2c1.6,0,2.8-0.4,3.6-1.1
			S40.8,43.9,40.8,42.6z"/>
	</g>
</g>
</svg>
