<?xml version="1.0" encoding="utf-8"?>
<!-- Generator: Adobe Illustrator 14.0.0, SVG Export Plug-In . SVG Version: 6.00 Build 43363)  -->
<!DOCTYPE svg PUBLIC "-//W3C//DTD SVG 1.1//EN" "http://www.w3.org/Graphics/SVG/1.1/DTD/svg11.dtd">
<svg version="1.1" id="Layer_1" xmlns="http://www.w3.org/2000/svg" xmlns:xlink="http://www.w3.org/1999/xlink" x="0px" y="0px"
	 width="50px" height="50px" viewBox="0 0 50 50" enable-background="new 0 0 50 50" xml:space="preserve">
<g>
	<g>
		<g>
			<path fill="#E88126" d="M25,0.5c-9.449,0-17.11,7.661-17.11,17.11c0,6.022,3.112,11.317,7.815,14.366v3.387
				c0,1.911,1.563,3.474,3.473,3.474l11.643-1.352c1.911,0,3.475-1.563,3.475-3.473v-2.036c4.703-3.048,7.815-8.344,7.815-14.366
				C42.11,8.161,34.449,0.5,25,0.5z M34.214,29.417c-0.643,0.501-1.323,0.955-2.043,1.349v2.381v0.864
				c0,0.732-0.618,1.351-1.351,1.351l-11.643,1.351c-0.732,0-1.35-0.619-1.35-1.351v-2.215v-2.381
				c-0.72-0.394-1.4-0.847-2.043-1.349c-3.509-2.746-5.771-7.016-5.771-11.808c0-8.264,6.722-14.988,14.986-14.988
				c8.264,0,14.986,6.724,14.986,14.988C39.986,22.401,37.723,26.671,34.214,29.417z"/>
		</g>
		<g>
			<path fill="#293152" d="M31.902,40.704L17.537,42.47c-0.687,0.084-1.313-0.404-1.396-1.092c-0.084-0.687,0.404-1.313,1.092-1.397
				l14.363-1.766c0.688-0.084,1.313,0.404,1.398,1.092C33.078,39.994,32.59,40.62,31.902,40.704L31.902,40.704z"/>
		</g>
		<g>
			<path fill="#293152" d="M31.665,43.859L18.641,45.46c-0.688,0.084-1.313-0.404-1.397-1.092c-0.085-0.688,0.403-1.313,1.092-1.397
				l13.023-1.601c0.688-0.084,1.313,0.404,1.397,1.092C32.841,43.148,32.354,43.775,31.665,43.859L31.665,43.859z"/>
		</g>
		<path fill="#293152" d="M30.412,45.875c-0.085-0.687-0.71-1.176-1.398-1.092l-7.469,0.918c-0.688,0.085-1.177,0.71-1.092,1.398
			c0.084,0.688,0.711,1.176,1.397,1.091l2.464-0.302v0.128c0,0.819,0.663,1.482,1.481,1.482s1.481-0.664,1.481-1.482v-0.493
			l2.042-0.251C30.008,47.189,30.496,46.564,30.412,45.875z"/>
	</g>
</g>
</svg>
