<?xml version="1.0" encoding="utf-8"?>
<!-- Generator: Adobe Illustrator 14.0.0, SVG Export Plug-In . SVG Version: 6.00 Build 43363)  -->
<!DOCTYPE svg PUBLIC "-//W3C//DTD SVG 1.1//EN" "http://www.w3.org/Graphics/SVG/1.1/DTD/svg11.dtd">
<svg version="1.1" id="Layer_1" xmlns="http://www.w3.org/2000/svg" xmlns:xlink="http://www.w3.org/1999/xlink" x="0px" y="0px"
	 width="50px" height="50px" viewBox="0 0 50 50" enable-background="new 0 0 50 50" xml:space="preserve">
<g>
	<g>
		<polygon fill="#DFDFDE" points="46.211,8.019 17.262,8.019 17.262,0.5 46.211,0.5 46.211,8.019 		"/>
	</g>
	<g>
		<polygon fill="#DFDFDE" points="46.211,21.178 17.262,21.178 17.262,13.659 46.211,13.659 46.211,21.178 		"/>
	</g>
	<g>
		<polygon fill="#DFDFDE" points="46.211,34.336 17.262,34.336 17.262,26.817 46.211,26.817 46.211,34.336 		"/>
	</g>
	<g>
		<polygon fill="#E88124" points="7.463,2.682 7.463,7.048 8.744,7.048 8.744,1.03 7.625,1.03 5.73,2.934 6.459,3.7 		"/>
		<path fill="#E88124" d="M10.49,7.15c0.199,0,0.371-0.073,0.514-0.218c0.145-0.146,0.217-0.317,0.217-0.516
			s-0.072-0.369-0.217-0.513c-0.143-0.144-0.314-0.216-0.514-0.216c-0.197,0-0.369,0.072-0.516,0.216
			C9.83,6.047,9.758,6.218,9.758,6.416s0.072,0.37,0.217,0.516C10.121,7.077,10.293,7.15,10.49,7.15z"/>
		<path fill="#E88124" d="M6.133,15.229c0.271,0,0.5,0.067,0.689,0.203c0.189,0.135,0.285,0.33,0.285,0.583
			c0,0.356-0.209,0.736-0.627,1.139s-1.277,1.084-2.576,2.044v1.009h4.529v-1.128H5.979c0.832-0.604,1.441-1.142,1.83-1.614
			c0.387-0.473,0.58-0.956,0.58-1.451c0-0.583-0.215-1.047-0.646-1.394c-0.43-0.347-0.975-0.52-1.635-0.52
			c-0.441,0-0.867,0.082-1.277,0.245c-0.412,0.164-0.758,0.407-1.041,0.73l0.727,0.846C4.963,15.459,5.502,15.229,6.133,15.229z"/>
		<path fill="#E88124" d="M10.064,20.308c0.199,0,0.371-0.073,0.514-0.218c0.145-0.146,0.217-0.317,0.217-0.516
			s-0.072-0.369-0.217-0.513c-0.143-0.144-0.314-0.216-0.514-0.216c-0.197,0-0.369,0.072-0.516,0.216
			c-0.145,0.144-0.217,0.315-0.217,0.513s0.072,0.37,0.217,0.516C9.695,20.235,9.867,20.308,10.064,20.308z"/>
		<path fill="#E88124" d="M8.566,31.709c0-0.415-0.145-0.752-0.436-1.01s-0.613-0.404-0.969-0.44c0.361-0.065,0.67-0.22,0.93-0.464
			c0.258-0.245,0.387-0.549,0.387-0.911c0-0.498-0.203-0.893-0.607-1.186c-0.406-0.293-0.961-0.439-1.666-0.439
			c-0.969,0-1.736,0.316-2.305,0.949l0.645,0.805c0.432-0.417,0.941-0.625,1.533-0.625c0.326,0,0.594,0.062,0.805,0.184
			c0.209,0.123,0.314,0.299,0.314,0.53c0,0.431-0.373,0.647-1.119,0.647c-0.426,0-0.676-0.003-0.75-0.009v1.154
			c0.121-0.012,0.371-0.018,0.75-0.018c0.42,0,0.727,0.056,0.918,0.167c0.193,0.111,0.289,0.287,0.289,0.529
			c0,0.23-0.1,0.417-0.297,0.561c-0.199,0.143-0.479,0.215-0.84,0.215c-0.301,0-0.6-0.062-0.898-0.186
			c-0.301-0.125-0.551-0.292-0.75-0.505l-0.678,0.857c0.234,0.286,0.559,0.517,0.973,0.695c0.412,0.178,0.879,0.267,1.402,0.267
			c0.713,0,1.287-0.164,1.721-0.492C8.352,32.656,8.566,32.231,8.566,31.709z"/>
		<path fill="#E88124" d="M10.094,32.004c-0.197,0-0.369,0.072-0.516,0.216c-0.145,0.144-0.219,0.315-0.219,0.513
			s0.074,0.37,0.219,0.516c0.146,0.146,0.318,0.218,0.516,0.218c0.199,0,0.369-0.073,0.514-0.218
			c0.143-0.146,0.215-0.317,0.215-0.516s-0.072-0.369-0.215-0.513C10.463,32.076,10.293,32.004,10.094,32.004z"/>
		<path fill="#E88124" d="M43.83,41.229H8.24c-0.828,0-1.504,0.677-1.504,1.504v5.263c0,0.827,0.676,1.504,1.504,1.504h35.59
			c0.828,0,1.504-0.677,1.504-1.504v-5.263C45.334,41.906,44.658,41.229,43.83,41.229z"/>
	</g>
</g>
</svg>
