<?xml version="1.0" encoding="utf-8"?>
<!-- Generator: Adobe Illustrator 14.0.0, SVG Export Plug-In . SVG Version: 6.00 Build 43363)  -->
<!DOCTYPE svg PUBLIC "-//W3C//DTD SVG 1.1//EN" "http://www.w3.org/Graphics/SVG/1.1/DTD/svg11.dtd">
<svg version="1.1" id="Layer_1" xmlns="http://www.w3.org/2000/svg" xmlns:xlink="http://www.w3.org/1999/xlink" x="0px" y="0px"
	 width="50px" height="50px" viewBox="0 0 50 50" enable-background="new 0 0 50 50" xml:space="preserve">
<g>
	<g>
		<g>
			<path fill="#C2C2C2" d="M35.745,16.947L35.745,16.947l0.013-1.046l-0.006-1.045c0.232-0.006,2.276-0.172,2.452-4.039
				l-0.001-6.997h-2.385V1.728h4.476v9.136C40.021,16.888,35.849,16.947,35.745,16.947L35.745,16.947z"/>
		</g>
		<g>
			<path fill="#C2C2C2" d="M14.255,16.947c-0.102,0-4.276-0.059-4.548-6.035L9.706,1.728h4.476v2.091h-2.385v7.044
				c0.182,3.976,2.42,3.981,2.433,3.992L14.255,16.947C14.255,16.947,14.255,16.947,14.255,16.947L14.255,16.947z"/>
		</g>
	</g>
	<path fill="#E88126" d="M34.757,46.267v-7.236h-7.168v-10.41c4.775-1.164,8.324-5.458,8.324-10.592V0.5H14.087v17.529
		c0,5.134,3.549,9.428,8.324,10.592v10.41h-7.169v7.236h-1.761V49.5H36.52v-3.233H34.757z M16.177,18.029V2.592h17.646v15.437
		c0,4.865-3.958,8.822-8.822,8.822S16.177,22.894,16.177,18.029z M24.502,28.917c0.166,0.008,0.33,0.025,0.498,0.025
		s0.332-0.018,0.498-0.025v10.114h-0.996V28.917z M17.335,41.122h15.331v5.145H17.335V41.122z"/>
</g>
</svg>
