<?xml version="1.0" encoding="utf-8"?>
<!-- Generator: Adobe Illustrator 14.0.0, SVG Export Plug-In . SVG Version: 6.00 Build 43363)  -->
<!DOCTYPE svg PUBLIC "-//W3C//DTD SVG 1.1//EN" "http://www.w3.org/Graphics/SVG/1.1/DTD/svg11.dtd">
<svg version="1.1" id="Layer_1" xmlns="http://www.w3.org/2000/svg" xmlns:xlink="http://www.w3.org/1999/xlink" x="0px" y="0px"
	 width="50px" height="50px" viewBox="0 0 50 50" enable-background="new 0 0 50 50" xml:space="preserve">
<g>
	<path fill="#C2C2C2" d="M24.02,0.5c3.9,0,7.254,1.178,10.063,3.532c2.805,2.355,4.211,5.29,4.211,8.804
		c0,1.961-0.449,3.758-1.342,5.392c-0.895,1.633-1.98,3.059-3.26,4.275s-3.096,2.754-5.447,4.613
		c-2.355,1.858-3.971,3.532-4.848,5.019c-0.879,1.488-1.318,2.851-1.318,4.09c0,1.982-0.574,2.974-1.723,2.974
		c-0.607,0-1.025-0.23-1.25-0.691c-0.225-0.461-0.338-1.502-0.338-3.124c0-1.621,0.434-3.264,1.301-4.93s2.617-3.737,5.252-6.214
		c2.703-2.566,4.42-4.744,5.152-6.533c0.73-1.79,1.098-3.596,1.098-5.42c0-2.184-0.676-4.136-2.023-5.858
		c-1.348-1.723-3.123-2.584-5.326-2.584c-2.674,0-4.779,0.708-6.318,2.123c-1.541,1.414-2.309,3.222-2.309,5.423
		c0,1.213,0.266,2.251,0.801,3.115c0.533,0.865,1.225,1.297,2.07,1.297c0.271,0,0.516-0.039,0.73-0.117
		c0.217-0.079,0.439-0.119,0.666-0.119c0.523,0,1.051,0.196,1.584,0.587c0.535,0.392,0.803,0.845,0.803,1.358
		c0,0.917-0.418,1.638-1.256,2.164c-0.836,0.526-1.828,0.788-2.98,0.788c-1.674,0-3.141-0.742-4.406-2.226
		c-1.266-1.483-1.898-3.596-1.898-6.339c0-3.103,1.123-5.777,3.367-8.026C17.316,1.625,20.299,0.5,24.02,0.5z"/>
	<path fill="#E98025" d="M21.184,42.441c0.904,0,1.736,0.335,2.494,1.008c0.758,0.672,1.137,1.591,1.137,2.756
		c0,0.897-0.359,1.67-1.08,2.32c-0.723,0.649-1.566,0.974-2.535,0.974c-0.977,0-1.846-0.353-2.607-1.059
		c-0.762-0.707-1.141-1.541-1.141-2.504c0-0.986,0.367-1.815,1.102-2.488C19.289,42.776,20.164,42.441,21.184,42.441z"/>
</g>
</svg>
