<?xml version="1.0" encoding="utf-8"?>
<!-- Generator: Adobe Illustrator 19.0.0, SVG Export Plug-In . SVG Version: 6.00 Build 0)  -->
<svg version="1.1" id="Layer_1" xmlns="http://www.w3.org/2000/svg" xmlns:xlink="http://www.w3.org/1999/xlink" x="0px" y="0px"
	 viewBox="0 0 72 72" style="enable-background:new 0 0 72 72;" xml:space="preserve">
<style type="text/css">
	.st0{fill:none;stroke:#2A3052;}
	.st1{fill:none;stroke:#2A3052;stroke-dasharray:1.42,1.42;}
	.st2{fill:none;stroke:#293052;}
</style>
<g id="XMLID_971_">
	<g id="XMLID_1024_">
		<g id="XMLID_11_">
			<line id="XMLID_14_" class="st0" x1="0.5" y1="58.9" x2="1.2" y2="58.9"/>
			<line id="XMLID_13_" class="st1" x1="2.6" y1="58.9" x2="70.1" y2="58.9"/>
			<line id="XMLID_12_" class="st0" x1="70.8" y1="58.9" x2="71.5" y2="58.9"/>
		</g>
	</g>
	<g id="XMLID_972_">
		<g id="XMLID_1019_">
			<line id="XMLID_1023_" class="st2" x1="2.9" y1="40.4" x2="2.9" y2="49.3"/>
			<line id="XMLID_1022_" class="st2" x1="2.9" y1="14.4" x2="2.9" y2="20.4"/>
			<g id="XMLID_1020_">
				<polygon id="XMLID_1021_" class="st2" points="5.4,40.4 0.5,40.4 0.5,20.4 5.4,20.4 				"/>
			</g>
		</g>
		<g id="XMLID_1014_">
			<line id="XMLID_1018_" class="st2" x1="69" y1="36" x2="69" y2="44.9"/>
			<line id="XMLID_1017_" class="st2" x1="69" y1="10" x2="69" y2="16"/>
			<g id="XMLID_1015_">
				<polygon id="XMLID_1016_" class="st2" points="71.5,36 66.5,36 66.5,16 71.5,16 				"/>
			</g>
		</g>
		<g id="XMLID_1009_">
			<line id="XMLID_1013_" class="st2" x1="42.6" y1="42.8" x2="42.6" y2="51.8"/>
			<line id="XMLID_1012_" class="st2" x1="42.6" y1="16.9" x2="42.6" y2="22.8"/>
			<g id="XMLID_1010_">
				<polygon id="XMLID_1011_" class="st2" points="45,42.8 40.1,42.8 40.1,22.9 45,22.9 				"/>
			</g>
		</g>
		<g id="XMLID_1004_">
			<line id="XMLID_1008_" class="st2" x1="36" y1="36.1" x2="36" y2="42.4"/>
			<line id="XMLID_1007_" class="st2" x1="36" y1="19.8" x2="36" y2="24.6"/>
			<g id="XMLID_1005_">
				<polygon id="XMLID_1006_" class="st2" points="38.4,36.1 33.5,36.1 33.5,24.6 38.4,24.6 				"/>
			</g>
		</g>
		<g id="XMLID_999_">
			<line id="XMLID_1003_" class="st2" x1="16.1" y1="39.7" x2="16.1" y2="46"/>
			<line id="XMLID_1002_" class="st2" x1="16.1" y1="23.4" x2="16.1" y2="28.2"/>
			<g id="XMLID_1000_">
				<polygon id="XMLID_1001_" class="st2" points="18.7,39.8 13.7,39.8 13.7,28.3 18.7,28.3 				"/>
			</g>
		</g>
		<g id="XMLID_994_">
			<line id="XMLID_998_" class="st2" x1="55.8" y1="36.6" x2="55.8" y2="43"/>
			<line id="XMLID_997_" class="st2" x1="55.8" y1="20.4" x2="55.8" y2="25.1"/>
			<g id="XMLID_995_">
				<polygon id="XMLID_996_" class="st2" points="58.2,36.6 53.3,36.6 53.3,25.2 58.2,25.2 				"/>
			</g>
		</g>
		<g id="XMLID_990_">
			<line id="XMLID_993_" class="st2" x1="9.5" y1="26" x2="9.5" y2="31"/>
			<g id="XMLID_991_">
				<polygon id="XMLID_992_" class="st2" points="12,42.3 7.1,42.3 7.1,30.8 12,30.8 				"/>
			</g>
		</g>
		<g id="XMLID_986_">
			<line id="XMLID_989_" class="st2" x1="49.2" y1="27.1" x2="49.2" y2="32"/>
			<g id="XMLID_987_">
				<polygon id="XMLID_988_" class="st2" points="51.6,43.4 46.8,43.4 46.8,31.9 51.6,31.9 				"/>
			</g>
		</g>
		<g id="XMLID_982_">
			<line id="XMLID_985_" class="st2" x1="22.7" y1="31.4" x2="22.7" y2="37.6"/>
			<g id="XMLID_983_">
				<polygon id="XMLID_984_" class="st2" points="25.2,31.3 20.3,31.3 20.3,19.9 25.2,19.9 				"/>
			</g>
		</g>
		<g id="XMLID_978_">
			<line id="XMLID_981_" class="st2" x1="62.4" y1="26.1" x2="62.4" y2="32.2"/>
			<g id="XMLID_979_">
				<polygon id="XMLID_980_" class="st2" points="64.9,26 59.9,26 59.9,14.6 64.9,14.6 				"/>
			</g>
		</g>
		<g id="XMLID_973_">
			<line id="XMLID_977_" class="st2" x1="29.4" y1="27.1" x2="29.4" y2="34.9"/>
			<line id="XMLID_976_" class="st2" x1="29.4" y1="52.9" x2="29.4" y2="62"/>
			<g id="XMLID_974_">
				<polygon id="XMLID_975_" class="st2" points="31.8,52.9 26.9,52.9 26.9,35 31.8,35 				"/>
			</g>
		</g>
	</g>
</g>
</svg>
