<?xml version="1.0" encoding="utf-8"?>
<!-- Generator: Adobe Illustrator 19.0.0, SVG Export Plug-In . SVG Version: 6.00 Build 0)  -->
<svg version="1.1" id="Layer_1" xmlns="http://www.w3.org/2000/svg" xmlns:xlink="http://www.w3.org/1999/xlink" x="0px" y="0px"
	 viewBox="0 0 72 72" style="enable-background:new 0 0 72 72;" xml:space="preserve">
<style type="text/css">
	.st0{fill:none;stroke:#293052;}
</style>
<g id="XMLID_1025_">
	<g id="XMLID_1044_">
		<line id="XMLID_1048_" class="st0" x1="3.9" y1="38.1" x2="3.9" y2="49.8"/>
		<line id="XMLID_1047_" class="st0" x1="3.9" y1="4" x2="3.9" y2="11.8"/>
		<g id="XMLID_1045_">
			<polygon id="XMLID_1046_" class="st0" points="7.2,38.1 0.7,38.1 0.7,11.9 7.2,11.9 			"/>
		</g>
	</g>
	<g id="XMLID_1039_">
		<line id="XMLID_1043_" class="st0" x1="68.1" y1="21.4" x2="68.1" y2="29.7"/>
		<line id="XMLID_1042_" class="st0" x1="68.1" y1="0" x2="68.1" y2="6.3"/>
		<g id="XMLID_1040_">
			<polygon id="XMLID_1041_" class="st0" points="71.3,21.4 64.8,21.4 64.8,6.5 71.3,6.5 			"/>
		</g>
	</g>
	<g id="XMLID_1035_">
		<line id="XMLID_1038_" class="st0" x1="16.5" y1="25.4" x2="16.5" y2="32"/>
		<g id="XMLID_1036_">
			<polygon id="XMLID_1037_" class="st0" points="19.8,46.8 13.2,46.8 13.2,31.8 19.8,31.8 			"/>
		</g>
	</g>
	<g id="XMLID_1031_">
		<line id="XMLID_1034_" class="st0" x1="29.6" y1="18.5" x2="29.6" y2="26.5"/>
		<g id="XMLID_1032_">
			<polygon id="XMLID_1033_" class="st0" points="33,18.3 26.4,18.3 26.4,3.3 33,3.3 			"/>
		</g>
	</g>
	<g id="XMLID_1026_">
		<line id="XMLID_1030_" class="st0" x1="55" y1="26.2" x2="55" y2="36.5"/>
		<line id="XMLID_1029_" class="st0" x1="55" y1="60.2" x2="55" y2="72"/>
		<g id="XMLID_1027_">
			<polygon id="XMLID_1028_" class="st0" points="58.2,60.2 51.7,60.2 51.7,36.6 58.2,36.6 			"/>
		</g>
	</g>
</g>
</svg>
