<?xml version="1.0" encoding="utf-8"?>
<!-- Generator: Adobe Illustrator 19.0.0, SVG Export Plug-In . SVG Version: 6.00 Build 0)  -->
<svg version="1.1" id="Layer_1" xmlns="http://www.w3.org/2000/svg" xmlns:xlink="http://www.w3.org/1999/xlink" x="0px" y="0px"
	 viewBox="0 0 72 72" style="enable-background:new 0 0 72 72;" xml:space="preserve">
<style type="text/css">
	.st0{fill:none;stroke:#293052;}
	.st1{fill:none;stroke:#293052;stroke-linecap:round;stroke-linejoin:round;}
</style>
<g id="XMLID_754_">
	<ellipse id="XMLID_807_" class="st0" cx="36" cy="36" rx="35.2" ry="35.5"/>
	<g id="XMLID_755_">
		<ellipse id="XMLID_806_" class="st0" cx="36" cy="36" rx="28.2" ry="28.4"/>
		<path id="XMLID_805_" class="st1" d="M35.6,39.2l10-13.5L32.2,35.8l0,0c-0.1,0-0.1,0.1-0.2,0.1c-0.9,0.9-0.9,2.5,0,3.4
			c0.9,0.9,2.5,0.9,3.4,0C35.5,39.3,35.5,39.3,35.6,39.2L35.6,39.2z"/>
		<g id="XMLID_787_">
			<g id="XMLID_803_">
				<line id="XMLID_804_" class="st0" x1="36" y1="11.4" x2="36" y2="15.8"/>
			</g>
			<g id="XMLID_800_">
				<line id="XMLID_802_" class="st0" x1="56.4" y1="35.2" x2="60.1" y2="35.2"/>
				<line id="XMLID_801_" class="st0" x1="15.6" y1="35.2" x2="11.8" y2="35.2"/>
			</g>
			<g id="XMLID_798_">
				<line id="XMLID_799_" class="st0" x1="52.7" y1="18.3" x2="50.1" y2="21.1"/>
			</g>
			<g id="XMLID_796_">
				<line id="XMLID_797_" class="st0" x1="22.1" y1="21.3" x2="19.3" y2="18.3"/>
			</g>
			<g id="XMLID_794_">
				<line id="XMLID_795_" class="st0" x1="44.9" y1="13.1" x2="43.4" y2="17.2"/>
			</g>
			<g id="XMLID_792_">
				<line id="XMLID_793_" class="st0" x1="17.6" y1="27.8" x2="14.1" y2="26.2"/>
			</g>
			<g id="XMLID_790_">
				<line id="XMLID_791_" class="st0" x1="57.8" y1="26" x2="54.5" y2="27.3"/>
			</g>
			<g id="XMLID_788_">
				<line id="XMLID_789_" class="st0" x1="28.5" y1="16.9" x2="26.8" y2="13.2"/>
			</g>
		</g>
		<g id="XMLID_781_">
			<ellipse id="XMLID_786_" class="st0" cx="36" cy="54.6" rx="1.4" ry="1.4"/>
			<ellipse id="XMLID_785_" class="st0" cx="44.9" cy="52.2" rx="1.4" ry="1.4"/>
			<ellipse id="XMLID_784_" class="st0" cx="26.9" cy="52.2" rx="1.4" ry="1.4"/>
			<ellipse id="XMLID_783_" class="st0" cx="20.2" cy="45.8" rx="1.4" ry="1.4"/>
			<ellipse id="XMLID_782_" class="st0" cx="51.8" cy="45.8" rx="1.4" ry="1.4"/>
		</g>
		<rect id="XMLID_780_" x="31.6" y="44.8" class="st0" width="8.9" height="4"/>
		<path id="XMLID_779_" class="st0" d="M11.8,36c0-13.4,10.8-24.3,24.2-24.3c13.3,0,24.2,10.9,24.2,24.3"/>
		<path id="XMLID_760_" class="st0" d="M15.7,36.1c0-11.3,9.1-20.4,20.3-20.4s20.3,9.1,20.3,20.4"/>
	</g>
</g>
</svg>
