<?xml version="1.0" encoding="utf-8"?>
<!-- Generator: Adobe Illustrator 19.0.0, SVG Export Plug-In . SVG Version: 6.00 Build 0)  -->
<svg version="1.1" id="Layer_1" xmlns="http://www.w3.org/2000/svg" xmlns:xlink="http://www.w3.org/1999/xlink" x="0px" y="0px"
	 viewBox="0 0 72 72" style="enable-background:new 0 0 72 72;" xml:space="preserve">
<style type="text/css">
	.st0{fill:none;stroke:#293052;}
</style>
<g id="XMLID_1069_">
	<path id="XMLID_1154_" class="st0" d="M53.7,6H18.3C8.5,6,0.5,13.6,0.5,22.9v15c0,9.3,8,16.9,17.8,16.9h16.2
		C38.7,59.6,45.8,65.3,56,66c0.5,0,0.7-0.5,0.4-0.8c-2-1.8-6.2-6.1-6.4-10.4h3.6c9.8,0,17.8-7.6,17.8-16.9v-15
		C71.4,13.6,63.5,6,53.7,6z"/>
	<g id="XMLID_1132_">
		<ellipse id="XMLID_1153_" class="st0" cx="16" cy="30.3" rx="2.3" ry="2.1"/>
		<ellipse id="XMLID_1142_" class="st0" cx="26" cy="30.3" rx="2.3" ry="2.1"/>
		<ellipse id="XMLID_1141_" class="st0" cx="45.9" cy="30.3" rx="2.3" ry="2.1"/>
		<ellipse id="XMLID_1140_" class="st0" cx="35.9" cy="30.3" rx="2.3" ry="2.1"/>
		<ellipse id="XMLID_1139_" class="st0" cx="55.8" cy="30.3" rx="2.3" ry="2.1"/>
	</g>
</g>
</svg>
