<?xml version="1.0" encoding="utf-8"?>
<!-- Generator: Adobe Illustrator 19.0.0, SVG Export Plug-In . SVG Version: 6.00 Build 0)  -->
<svg version="1.1" id="my_x5F_acc_1_" xmlns="http://www.w3.org/2000/svg" xmlns:xlink="http://www.w3.org/1999/xlink" x="0px"
	 y="0px" viewBox="0 0 50 50" style="enable-background:new 0 0 50 50;" xml:space="preserve">
<style type="text/css">
	.st1{fill:none;stroke:white;stroke-width:2;stroke-miterlimit:10;}
</style>
<g id="my_x5F_acc">
	<path  class="st1" d="M13.8,12.7c0,0,9.9,1,13.1-6c0,0,2.9,5.7,8.7,5.7"/>
	<path  class="st1" d="M35.7,13.9c0-0.1,0-0.2,0-0.3c0-7-4.9-12.6-11-12.6s-11,5.7-11,12.6c0,0.1,0,0.1,0,0.2
		c-0.9,0.5-1.5,1.4-1.3,2.5c0.1,1.2,1.1,2,2.1,2.1c1.6,4.7,5.6,8.2,10.1,8.2c4.6,0,8.5-3.5,10.1-8.3c1-0.2,1.8-1,1.9-2.1
		C36.9,15.3,36.5,14.4,35.7,13.9z"/>
	<path  class="st1" d="M20.9,27.7v4.3c-7,1.8-12.2,7.3-12.2,15V50"/>
	<path  class="st1" d="M29.1,27.7v4.3c7,1.8,12.2,7.3,12.2,15V50"/>
</g>
</svg>
