<?xml version="1.0" encoding="utf-8"?>
<!-- Generator: Adobe Illustrator 19.0.0, SVG Export Plug-In . SVG Version: 6.00 Build 0)  -->
<svg version="1.1" id="Layer_1" xmlns="http://www.w3.org/2000/svg" xmlns:xlink="http://www.w3.org/1999/xlink" x="0px" y="0px"
	 viewBox="-261 384.9 72 72" style="enable-background:new -261 384.9 72 72;" xml:space="preserve">
<style type="text/css">
	.st0{fill:none;stroke:#293052;stroke-width:2;stroke-linecap:round;stroke-miterlimit:10;}
	.st1{fill:none;stroke:#293052;stroke-width:2;stroke-miterlimit:10;}
</style>
<g id="XMLID_860_">
	<g id="XMLID_529_">
		<path id="XMLID_530_" class="st0" d="M-255.7,430.7h-1.1c-1.8,0-3.3-1.5-3.3-3.3v-32.4c0-1.8,1.5-3.3,3.3-3.3h56.8
			c1.8,0,3.3,1.5,3.3,3.3v13.8"/>
	</g>
	<g id="XMLID_531_">
		<path id="XMLID_638_" class="st1" d="M-193.3,450H-250c-1.8,0-3.3-1.5-3.3-3.3v-32.4c0-1.8,1.5-3.3,3.3-3.3h56.8
			c1.8,0,3.3,1.5,3.3,3.3v32.4C-190,448.5-191.5,450-193.3,450z"/>
		<line id="XMLID_637_" class="st1" x1="-190" y1="426.4" x2="-253.3" y2="426.4"/>
		<line id="XMLID_636_" class="st1" x1="-253.3" y1="420.3" x2="-190" y2="420.3"/>
		<rect id="XMLID_634_" x="-247.5" y="431" class="st1" width="17.8" height="4.5"/>
		<rect id="XMLID_632_" x="-247.5" y="439.1" class="st1" width="13.8" height="4.5"/>
	</g>
</g>
</svg>
