<?xml version="1.0" encoding="utf-8"?>
<!-- Generator: Adobe Illustrator 19.0.0, SVG Export Plug-In . SVG Version: 6.00 Build 0)  -->
<svg version="1.1" id="Layer_1" xmlns="http://www.w3.org/2000/svg" xmlns:xlink="http://www.w3.org/1999/xlink" x="0px" y="0px"
	 viewBox="0 0 72 72" style="enable-background:new 0 0 72 72;" xml:space="preserve">
<style type="text/css">
	.st0{fill:none;stroke:#232D61;}
</style>
<g id="XMLID_912_">
	<rect id="XMLID_1_" x="0.5" y="0.5" class="st0" width="71" height="71"/>
	<line id="XMLID_3_" class="st0" x1="24.4" y1="0.5" x2="24.4" y2="71.5"/>
	<line id="XMLID_2_" class="st0" x1="47.6" y1="71.5" x2="47.6" y2="0.5"/>
	<line id="XMLID_957_" class="st0" x1="5.7" y1="8.4" x2="19.9" y2="8.4"/>
	<g id="XMLID_953_">
		<line id="XMLID_956_" class="st0" x1="5.7" y1="23.2" x2="19.9" y2="23.2"/>
		<line id="XMLID_955_" class="st0" x1="29.1" y1="23.2" x2="43.3" y2="23.2"/>
		<line id="XMLID_954_" class="st0" x1="52.5" y1="23.2" x2="66.8" y2="23.2"/>
	</g>
	<g id="XMLID_949_">
		<line id="XMLID_952_" class="st0" x1="5.7" y1="31.1" x2="19.9" y2="31.1"/>
		<line id="XMLID_951_" class="st0" x1="29.1" y1="31.1" x2="43.3" y2="31.1"/>
		<line id="XMLID_950_" class="st0" x1="52.5" y1="31.1" x2="66.8" y2="31.1"/>
	</g>
	<g id="XMLID_945_">
		<line id="XMLID_948_" class="st0" x1="5.7" y1="39" x2="19.9" y2="39"/>
		<line id="XMLID_947_" class="st0" x1="29.1" y1="39" x2="43.3" y2="39"/>
		<line id="XMLID_946_" class="st0" x1="52.5" y1="39" x2="66.8" y2="39"/>
	</g>
	<g id="XMLID_941_">
		<line id="XMLID_944_" class="st0" x1="5.7" y1="47" x2="19.9" y2="47"/>
		<line id="XMLID_943_" class="st0" x1="29.1" y1="47" x2="43.3" y2="47"/>
		<line id="XMLID_942_" class="st0" x1="52.5" y1="47" x2="66.8" y2="47"/>
	</g>
	<g id="XMLID_920_">
		<line id="XMLID_940_" class="st0" x1="5.7" y1="54.9" x2="19.9" y2="54.9"/>
		<line id="XMLID_939_" class="st0" x1="29.1" y1="54.9" x2="43.3" y2="54.9"/>
		<line id="XMLID_938_" class="st0" x1="52.5" y1="54.9" x2="66.8" y2="54.9"/>
	</g>
	<g id="XMLID_916_">
		<line id="XMLID_919_" class="st0" x1="5.7" y1="62.8" x2="19.9" y2="62.8"/>
		<line id="XMLID_918_" class="st0" x1="29.1" y1="62.8" x2="43.3" y2="62.8"/>
		<line id="XMLID_917_" class="st0" x1="52.5" y1="62.8" x2="66.8" y2="62.8"/>
	</g>
	<polygon id="XMLID_915_" class="st0" points="39.8,10.7 36.3,6 32.7,10.7 	"/>
	<polygon id="XMLID_914_" class="st0" points="63.3,6 59.7,10.7 56.2,6 	"/>
	<line id="XMLID_913_" class="st0" x1="0.5" y1="16.2" x2="71.5" y2="16.2"/>
</g>
</svg>
