<?xml version="1.0" encoding="utf-8"?>
<!-- Generator: Adobe Illustrator 19.0.1, SVG Export Plug-In . SVG Version: 6.00 Build 0)  -->
<svg version="1.1" id="Layer_1" xmlns="http://www.w3.org/2000/svg" xmlns:xlink="http://www.w3.org/1999/xlink" x="0px" y="0px"
	 viewBox="0 0 50 50" style="enable-background:new 0 0 50 50;" xml:space="preserve">
<style type="text/css">
	.st0{fill:none;stroke:#DFDFDE;stroke-width:2;stroke-miterlimit:10;}
	.st1{fill:none;stroke:#E88124;stroke-width:2;stroke-miterlimit:10;}
</style>
<g>
	<g>
		<path id="XMLID_157_" class="st0" d="M39.2,5h5.3v7.8c0,3-2.4,5.5-5.3,5.5"/>
		<path id="XMLID_156_" class="st0" d="M10.8,5H5.5v7.8c0,3,2.4,5.5,5.3,5.5"/>
	</g>
	<g>
		<line id="XMLID_154_" class="st1" x1="23.4" y1="34.1" x2="23.4" y2="43.4"/>
		<line id="XMLID_153_" class="st1" x1="26.6" y1="34.1" x2="26.6" y2="43.4"/>
	</g>
	<g>
		<line id="XMLID_158_" class="st1" x1="40.6" y1="49" x2="9.4" y2="49"/>
		<polyline id="XMLID_151_" class="st1" points="37.5,49 37.5,43.5 12.5,43.5 12.5,49 		"/>
	</g>
	<path id="XMLID_150_" class="st1" d="M25,34.1L25,34.1c-7.9,0-14.3-6.4-14.3-14.3V1h28.5v18.8C39.3,27.7,32.9,34.1,25,34.1z"/>
</g>
</svg>
