<?xml version="1.0" encoding="utf-8"?>
<!-- Generator: Adobe Illustrator 19.0.0, SVG Export Plug-In . SVG Version: 6.00 Build 0)  -->
<svg version="1.1" id="Layer_1" xmlns="http://www.w3.org/2000/svg" xmlns:xlink="http://www.w3.org/1999/xlink" x="0px" y="0px"
	 viewBox="0 0 72 72" style="enable-background:new 0 0 72 72;" xml:space="preserve">
<style type="text/css">
	.st0{fill:#293052;}
	.st1{fill:none;stroke:#293052;}
</style>
<g id="XMLID_1099_">
	<g id="XMLID_1129_">
		<g id="XMLID_47_">
			<path id="XMLID_48_" class="st0" d="M70,1c0.6,0,1,0.4,1,1v68c0,0.6-0.4,1-1,1H2c-0.6,0-1-0.4-1-1V2c0-0.6,0.4-1,1-1H70 M70,0H2
				C0.9,0,0,0.9,0,2v68c0,1.1,0.9,2,2,2h68c1.1,0,2-0.9,2-2V2C72,0.9,71.1,0,70,0L70,0z"/>
		</g>
	</g>
	<g id="XMLID_1100_">
		<g id="XMLID_1125_">
			<line id="XMLID_1128_" class="st1" x1="7.2" y1="8" x2="21.3" y2="8"/>
			<line id="XMLID_1127_" class="st1" x1="28.9" y1="8" x2="43.1" y2="8"/>
			<line id="XMLID_1126_" class="st1" x1="50.7" y1="8" x2="64.8" y2="8"/>
		</g>
		<g id="XMLID_1121_">
			<line id="XMLID_1124_" class="st1" x1="7.2" y1="17.3" x2="21.3" y2="17.3"/>
			<line id="XMLID_1123_" class="st1" x1="28.9" y1="17.3" x2="43.1" y2="17.3"/>
			<line id="XMLID_1122_" class="st1" x1="50.7" y1="17.3" x2="64.8" y2="17.3"/>
		</g>
		<g id="XMLID_1117_">
			<line id="XMLID_1120_" class="st1" x1="7.2" y1="26.7" x2="21.3" y2="26.7"/>
			<line id="XMLID_1119_" class="st1" x1="28.9" y1="26.7" x2="43.1" y2="26.7"/>
			<line id="XMLID_1118_" class="st1" x1="50.7" y1="26.7" x2="64.8" y2="26.7"/>
		</g>
		<g id="XMLID_1113_">
			<line id="XMLID_1116_" class="st1" x1="7.2" y1="36" x2="21.3" y2="36"/>
			<line id="XMLID_1115_" class="st1" x1="28.9" y1="36" x2="43.1" y2="36"/>
			<line id="XMLID_1114_" class="st1" x1="50.7" y1="36" x2="64.8" y2="36"/>
		</g>
		<g id="XMLID_1109_">
			<line id="XMLID_1112_" class="st1" x1="7.2" y1="45.4" x2="21.3" y2="45.4"/>
			<line id="XMLID_1111_" class="st1" x1="28.9" y1="45.4" x2="43.1" y2="45.4"/>
			<line id="XMLID_1110_" class="st1" x1="50.7" y1="45.4" x2="64.8" y2="45.4"/>
		</g>
		<g id="XMLID_1105_">
			<line id="XMLID_1108_" class="st1" x1="7.2" y1="54.7" x2="21.3" y2="54.7"/>
			<line id="XMLID_1107_" class="st1" x1="28.9" y1="54.7" x2="43.1" y2="54.7"/>
			<line id="XMLID_1106_" class="st1" x1="50.7" y1="54.7" x2="64.8" y2="54.7"/>
		</g>
		<g id="XMLID_1101_">
			<line id="XMLID_1104_" class="st1" x1="7.2" y1="64.1" x2="21.3" y2="64.1"/>
			<line id="XMLID_1103_" class="st1" x1="28.9" y1="64.1" x2="43.1" y2="64.1"/>
			<line id="XMLID_1102_" class="st1" x1="50.7" y1="64.1" x2="64.8" y2="64.1"/>
		</g>
	</g>
</g>
</svg>
