<?xml version="1.0" encoding="utf-8"?>
<!-- Generator: Adobe Illustrator 19.0.0, SVG Export Plug-In . SVG Version: 6.00 Build 0)  -->
<svg version="1.1" id="Layer_1" xmlns="http://www.w3.org/2000/svg" xmlns:xlink="http://www.w3.org/1999/xlink" x="0px" y="0px"
	 viewBox="0 0 72 72" style="enable-background:new 0 0 72 72;" xml:space="preserve">
<style type="text/css">
	.st0{fill:none;stroke:#293052;}
</style>
<g id="XMLID_906_">
	<path id="XMLID_910_" class="st0" d="M23.8,17.2l-2.1-2.1l-2.3-2.3l-2.7,2.7l1.7,1.7l0,0l11.5,11.4l11.5-11.4l0,0l2.1-2.1l0,0
		l8.1-8v6.1l3.9-3.9V0.5h-8.9l-3.9,3.9h6.1L37.8,15.1l-2.1,2.1l-6,5.9L23.8,17.2"/>
	<path id="XMLID_908_" class="st0" d="M23.8,54.8l6-5.9l6,5.9l2.1,2.1l10.9,10.8h-6.1l3.9,3.9h8.9v-8.9l-3.9-3.9v6.1l-8.1-8l0,0
		l-2.1-2.1l0,0L29.8,43.4L18.3,54.8l0,0l-1.7,1.7l2.7,2.7l2.3-2.3L23.8,54.8"/>
	<line id="XMLID_907_" class="st0" x1="0" y1="36" x2="72" y2="36"/>
</g>
</svg>
