<?xml version="1.0" encoding="utf-8"?>
<!-- Generator: Adobe Illustrator 19.0.0, SVG Export Plug-In . SVG Version: 6.00 Build 0)  -->
<svg version="1.1" id="Layer_1" xmlns="http://www.w3.org/2000/svg" xmlns:xlink="http://www.w3.org/1999/xlink" x="0px" y="0px"
	 viewBox="0 0 72 72" style="enable-background:new 0 0 72 72;" xml:space="preserve">
<style type="text/css">
	.st0{fill:none;stroke:#293052;stroke-linecap:round;stroke-miterlimit:10;}
</style>
<g id="XMLID_747_">
	<path id="XMLID_742_" class="st0" d="M40,13.5c0-2.8,2.3-5.1,5.1-5.1h0c2.8,0,5.1,2.3,5.1,5.1V42"/>
	<path id="XMLID_745_" class="st0" d="M40,35V5.6c0-2.8-2.3-5.1-5.1-5.1h0c-2.8,0-5.1,2.3-5.1,5.1v6.5"/>
	<path id="XMLID_744_" class="st0" d="M19.5,39.5V12.4c0-2.8,2.3-5.1,5.1-5.1h0c2.8,0,5.1,2.3,5.1,5.1V35"/>
	<path id="XMLID_746_" class="st0" d="M9.3,47.2V21c0-2.8,2.3-5.1,5.1-5.1h0c2.8,0,5.1,2.3,5.1,5.1"/>
	<path id="XMLID_750_" class="st0" d="M48.4,43.8l5.6-5.6c2-2,5.2-2,7.2,0l0,0c2,2,2,5.2,0,7.2L48.4,58.1"/>
	<path id="XMLID_737_" class="st0" d="M50.2,56.3L50.2,56.3c0,8.4-6.8,15.2-15.2,15.2h-7.1c-10.3,0-18.6-8.3-18.6-18.6v-5.9"/>
</g>
</svg>
