<?xml version="1.0" encoding="utf-8"?>
<!-- Generator: Adobe Illustrator 19.0.0, SVG Export Plug-In . SVG Version: 6.00 Build 0)  -->
<svg version="1.1" id="Layer_1" xmlns="http://www.w3.org/2000/svg" xmlns:xlink="http://www.w3.org/1999/xlink" x="0px" y="0px"
	 viewBox="0 0 72 72" style="enable-background:new 0 0 72 72;" xml:space="preserve">
<style type="text/css">
	.st0{fill:none;stroke:#293052;}
</style>
<path id="XMLID_1172_" class="st0" d="M68.5,43.4c0.5-2.3,0.8-4.7,0.8-7.2c0-18.4-14.7-33.3-32.9-33.3c-1.9,0-3.7,0.2-5.7,0.5
	c-2.9-1.9-6.4-2.9-10.1-2.9c-10.5,0-19,8.6-19,19.3c0,3.5,0.9,6.9,2.6,9.8c-0.4,2.1-0.7,4.5-0.7,6.7c0,18.4,14.8,33.3,32.9,33.3
	c2,0,4.1-0.2,6.1-0.5c2.7,1.4,5.8,2.3,9,2.3c10.5,0,19-8.6,19-19.3C70.4,48.9,69.7,46.1,68.5,43.4z M53.2,52.3
	c-1.5,2.2-3.7,3.9-6.7,5.2c-2.9,1.2-6.4,1.8-10.3,1.8c-4.8,0-8.7-0.8-11.7-2.5c-2.2-1.2-4.1-2.8-5.5-4.9c-1.4-2-2.1-4.1-2.1-6
	c0-1.2,0.5-2.3,1.4-3.1c0.9-0.8,2-1.3,3.4-1.3c1.1,0,2.1,0.3,2.9,1c0.7,0.6,1.4,1.6,1.9,2.8c0.6,1.3,1.2,2.5,1.9,3.4
	c0.6,0.9,1.6,1.6,2.7,2.1c1.2,0.6,2.8,0.9,4.8,0.9c2.7,0,5-0.6,6.6-1.7c1.6-1.1,2.4-2.5,2.4-4.2c0-1.3-0.4-2.3-1.3-3.1
	c-0.9-0.8-2-1.5-3.5-1.9c-1.5-0.5-3.5-1-6.1-1.5c-3.4-0.7-6.3-1.6-8.6-2.6s-4.3-2.4-5.7-4.2c-1.4-1.8-2.1-4.1-2.1-6.7
	c0-2.5,0.7-4.8,2.2-6.8c1.5-1.9,3.6-3.4,6.4-4.5c2.7-1,6-1.5,9.6-1.5c2.9,0,5.6,0.3,7.7,1c2.1,0.7,4,1.6,5.5,2.7
	c1.4,1.1,2.5,2.3,3.2,3.6c0.7,1.3,1,2.5,1,3.8c0,1.2-0.4,2.2-1.3,3.2c-0.9,0.9-2,1.4-3.3,1.4c-1.2,0-2.1-0.3-2.8-0.9
	c-0.6-0.5-1.2-1.4-1.9-2.6c-0.8-1.6-1.8-2.8-2.9-3.7c-1.1-0.8-2.9-1.3-5.5-1.3c-2.3,0-4.3,0.5-5.7,1.4c-1.4,0.9-2,1.9-2,3.2
	c0,0.8,0.2,1.4,0.6,1.9c0.5,0.6,1.1,1.1,1.9,1.5c0.9,0.4,1.7,0.8,2.6,1c0.9,0.3,2.4,0.6,4.6,1.1c2.6,0.6,5.1,1.2,7.3,1.9
	c2.2,0.7,4.1,1.6,5.7,2.6c1.6,1,2.8,2.3,3.7,3.9c0.9,1.6,1.3,3.5,1.3,5.9C55.5,47.5,54.7,50,53.2,52.3z"/>
</svg>
