<?xml version="1.0" encoding="utf-8"?>
<!-- Generator: Adobe Illustrator 19.0.0, SVG Export Plug-In . SVG Version: 6.00 Build 0)  -->
<svg version="1.1" id="Layer_1" xmlns="http://www.w3.org/2000/svg" xmlns:xlink="http://www.w3.org/1999/xlink" x="0px" y="0px"
	 viewBox="0 0 72 72" style="enable-background:new 0 0 72 72;" xml:space="preserve">
<style type="text/css">
	.st0{fill:#293052;}
	.st1{fill:none;stroke:#293052;}
</style>
<g id="XMLID_1070_">
	<g id="XMLID_1093_">
		<g id="XMLID_42_">
			<path id="XMLID_43_" class="st0" d="M70,1c0.6,0,1,0.4,1,1v68c0,0.6-0.4,1-1,1H2c-0.6,0-1-0.4-1-1V2c0-0.6,0.4-1,1-1H70 M70,0H2
				C0.9,0,0,0.9,0,2v68c0,1.1,0.9,2,2,2h68c1.1,0,2-0.9,2-2V2C72,0.9,71.1,0,70,0L70,0z"/>
		</g>
	</g>
	<g id="XMLID_1071_">
		<g id="XMLID_1090_">
			<line id="XMLID_1092_" class="st1" x1="7.2" y1="8" x2="36.3" y2="8"/>
			<line id="XMLID_1091_" class="st1" x1="44.1" y1="8" x2="64.8" y2="8"/>
		</g>
		<g id="XMLID_1087_">
			<line id="XMLID_1089_" class="st1" x1="7.2" y1="17.4" x2="36.3" y2="17.4"/>
			<line id="XMLID_1088_" class="st1" x1="44.1" y1="17.4" x2="64.8" y2="17.4"/>
		</g>
		<g id="XMLID_1084_">
			<line id="XMLID_1086_" class="st1" x1="7.2" y1="26.7" x2="36.3" y2="26.7"/>
			<line id="XMLID_1085_" class="st1" x1="46.2" y1="26.7" x2="64.8" y2="26.7"/>
		</g>
		<g id="XMLID_1081_">
			<line id="XMLID_1083_" class="st1" x1="7.2" y1="36" x2="36.3" y2="36"/>
			<line id="XMLID_1082_" class="st1" x1="44.1" y1="36" x2="64.8" y2="36"/>
		</g>
		<g id="XMLID_1078_">
			<line id="XMLID_1080_" class="st1" x1="7.2" y1="45.4" x2="36.3" y2="45.4"/>
			<line id="XMLID_1079_" class="st1" x1="44.1" y1="45.4" x2="64.8" y2="45.4"/>
		</g>
		<g id="XMLID_1075_">
			<line id="XMLID_1077_" class="st1" x1="7.2" y1="54.7" x2="36.3" y2="54.7"/>
			<line id="XMLID_1076_" class="st1" x1="46.2" y1="54.7" x2="64.8" y2="54.7"/>
		</g>
		<g id="XMLID_1072_">
			<line id="XMLID_1074_" class="st1" x1="7.2" y1="64.1" x2="36.3" y2="64.1"/>
			<line id="XMLID_1073_" class="st1" x1="46.2" y1="64.1" x2="64.8" y2="64.1"/>
		</g>
	</g>
</g>
</svg>
