<?xml version="1.0" encoding="utf-8"?>
<!-- Generator: Adobe Illustrator 19.0.0, SVG Export Plug-In . SVG Version: 6.00 Build 0)  -->
<svg version="1.1" id="Layer_1" xmlns="http://www.w3.org/2000/svg" xmlns:xlink="http://www.w3.org/1999/xlink" x="0px" y="0px"
	 viewBox="0 0 72 72" style="enable-background:new 0 0 72 72;" xml:space="preserve">
<style type="text/css">
	.st0{fill:none;stroke:#293052;}
</style>
<g id="XMLID_442_">
	<path id="XMLID_1068_" class="st0" d="M53,3.4c-5.2-1.5-10.9-2.3-16.8-2.3C30,1.1,24.1,2,18.9,3.5C12.3,5.4,6.6,8.6,2.3,12.3
		c-0.9,0.8-1.4,1.9-1.4,3v7.1v0.7c0,2.3,1.9,4.2,4.3,4.2h9.4c2.3,0,4.3-1.8,4.3-4.2v-7.6c0-1.9,1.3-3.5,3.3-4.1
		c4.4-1,9.1-1.5,14-1.5c4.8,0,9.2,0.5,13.5,1.4c1.9,0.4,3.3,2.1,3.3,4.1v7.8c0,2.3,1.9,4.2,4.3,4.2h9.4c2.3,0,4.3-1.8,4.3-4.2v-1.1
		v-7.1c0-1.2-0.5-2.3-1.4-3.1C65.3,8.3,59.6,5.3,53,3.4z"/>
	<g id="XMLID_445_">
		<path id="XMLID_457_" class="st0" d="M71.5,66.1V46.9c0-3.8-1.8-7.3-5-9.5c-7.9-5.6-18.7-9-30.5-9s-22.6,3.4-30.5,9
			c-3.1,2.2-5,5.8-5,9.5v19.2c0,2.7,2.2,4.9,5,4.9h61.1C69.3,70.9,71.5,68.8,71.5,66.1z"/>
		<ellipse id="XMLID_456_" class="st0" cx="36" cy="46" rx="13.1" ry="12.9"/>
		<ellipse id="XMLID_455_" class="st0" cx="36" cy="46" rx="1.9" ry="1.7"/>
		<line id="XMLID_447_" class="st0" x1="25.4" y1="16.7" x2="25.4" y2="28.7"/>
		<line id="XMLID_446_" class="st0" x1="46.6" y1="28.7" x2="46.6" y2="16.7"/>
	</g>
</g>
</svg>
