<?xml version="1.0" encoding="utf-8"?>
<!-- Generator: Adobe Illustrator 14.0.0, SVG Export Plug-In . SVG Version: 6.00 Build 43363)  -->
<!DOCTYPE svg PUBLIC "-//W3C//DTD SVG 1.1//EN" "http://www.w3.org/Graphics/SVG/1.1/DTD/svg11.dtd">
<svg version="1.1" id="Layer_1" xmlns="http://www.w3.org/2000/svg" xmlns:xlink="http://www.w3.org/1999/xlink" x="0px" y="0px"
	 width="50px" height="50px" viewBox="0 0 50 50" enable-background="new 0 0 50 50" xml:space="preserve">
<g>
	<g>
		<polygon fill="#E88024" points="15.069,11.735 13.773,14.079 16.306,14.079 		"/>
		<polygon fill="#E88024" points="24.97,30.497 17.533,16.406 12.486,16.406 7.49,25.452 2.223,25.452 2.223,28.784 9.455,28.784 
			15.003,18.751 22.563,33.074 27.349,33.074 36.628,16.406 32.81,16.406 		"/>
		<polygon fill="#E88024" points="42.59,2.21 34.285,4.852 32.121,9.038 37.945,7.184 34.105,14.079 37.924,14.079 41.071,8.426 
			42.871,14.079 43.542,14.079 45.291,10.699 		"/>
		<polygon fill="#E88024" points="24.895,37.491 26.063,35.387 23.782,35.387 		"/>
	</g>
	<path fill="#C2C2C1" d="M0,0v14.079v2.327v16.668v2.313V50h50V35.387v-2.313V16.406v-2.327V0H0z M48.305,48.305H1.695V35.387h3.283
		h4.185h14.619h2.28h22.242V48.305z M48.305,33.074H27.349h-4.786H9.163H4.979H1.695V16.406h2.013H8.21h4.276h5.047H32.81h3.818
		h11.677V33.074z M43.542,14.079h-0.671h-4.947h-3.818h-17.8h-2.532H8.21H3.708H1.695V1.695h46.609v12.384H43.542z"/>
</g>
</svg>
