<?xml version="1.0" encoding="utf-8"?>
<!-- Generator: Adobe Illustrator 14.0.0, SVG Export Plug-In . SVG Version: 6.00 Build 43363)  -->
<!DOCTYPE svg PUBLIC "-//W3C//DTD SVG 1.1//EN" "http://www.w3.org/Graphics/SVG/1.1/DTD/svg11.dtd">
<svg version="1.1" id="Layer_1" xmlns="http://www.w3.org/2000/svg" xmlns:xlink="http://www.w3.org/1999/xlink" x="0px" y="0px"
	 width="50px" height="50px" viewBox="0 0 50 50" enable-background="new 0 0 50 50" xml:space="preserve">
<g>
	<polygon fill="#E88024" points="28.665,18.054 21.237,27.614 13.943,16.83 7.751,26.18 2.396,26.18 2.396,29.514 9.54,29.514 
		13.973,22.821 21.05,33.286 28.832,23.267 33.727,28.784 40.719,28.784 36.247,33.256 40.959,33.258 47.261,26.958 41.099,20.796 
		36.386,20.796 41.04,25.45 35.226,25.45 	"/>
	<path fill="#C2C2C1" d="M0,0v14.185v2.224v18.121v2.223V50h50V36.752v-2.223V16.408v-2.224V0H0z M48.305,48.305H1.695V36.752
		h46.609V48.305z M48.305,34.529H1.695V16.408h46.609V34.529z M1.695,14.185V1.695h46.609v12.49H1.695z"/>
</g>
</svg>
