<?xml version="1.0" encoding="utf-8"?>
<!-- Generator: Adobe Illustrator 14.0.0, SVG Export Plug-In . SVG Version: 6.00 Build 43363)  -->
<!DOCTYPE svg PUBLIC "-//W3C//DTD SVG 1.1//EN" "http://www.w3.org/Graphics/SVG/1.1/DTD/svg11.dtd">
<svg version="1.1" id="Layer_1" xmlns="http://www.w3.org/2000/svg" xmlns:xlink="http://www.w3.org/1999/xlink" x="0px" y="0px"
	 width="50px" height="50px" viewBox="0 0 50 50" enable-background="new 0 0 50 50" xml:space="preserve">
<g>
	<rect y="25.602" fill="#C2C2C1" width="50" height="2.082"/>
	<polygon fill="#E88024" points="44.126,19.814 44.126,10.947 35.344,10.947 31.484,14.807 37.583,14.807 27.523,24.864 
		27.523,24.864 24.702,27.686 18.79,33.598 10.646,25.451 10.645,25.451 8.501,23.307 6.355,25.451 5.771,26.035 6.818,27.081 
		7.423,27.686 7.422,27.686 18.79,39.053 30.159,27.686 30.159,27.686 32.243,25.602 32.243,25.602 32.359,25.484 32.98,24.864 
		32.98,24.864 40.266,17.576 40.266,23.672 	"/>
</g>
</svg>
