<?xml version="1.0" encoding="utf-8"?>
<!-- Generator: Adobe Illustrator 19.0.0, SVG Export Plug-In . SVG Version: 6.00 Build 0)  -->
<svg version="1.1" id="Layer_1" xmlns="http://www.w3.org/2000/svg" xmlns:xlink="http://www.w3.org/1999/xlink" x="0px" y="0px"
	 viewBox="0 0 72 72" style="enable-background:new 0 0 72 72;" xml:space="preserve">
<style type="text/css">
	.st0{fill:none;stroke:white;}
</style>
<g id="XMLID_1203_">
	<path id="XMLID_1165_" class="st0" d="M9.7,19v26.7c0,1.2-1,2.2-2.2,2.2H2.7c-1.8,0-2.8,2.1-1.7,3.5l15.9,19.2c0.9,1,2.5,1,3.3,0
		l15.9-19.2c1.2-1.4,0.2-3.5-1.7-3.5h-4.9c-1.2,0-2.2-1-2.2-2.2V19"/>
	<path id="XMLID_1163_" class="st0" d="M44.5,53V26.2c0-1.2-1-2.2-2.2-2.2h-4.9c-1.8,0-2.8-2.1-1.7-3.5L51.8,1.3c0.9-1,2.5-1,3.3,0
		L71,20.5c1.2,1.4,0.2,3.5-1.7,3.5h-4.9c-1.2,0-2.2,1-2.2,2.2V53"/>
</g>
</svg>
