<?xml version="1.0" encoding="utf-8"?>
<!-- Generator: Adobe Illustrator 14.0.0, SVG Export Plug-In . SVG Version: 6.00 Build 43363)  -->
<!DOCTYPE svg PUBLIC "-//W3C//DTD SVG 1.1//EN" "http://www.w3.org/Graphics/SVG/1.1/DTD/svg11.dtd">
<svg version="1.1" id="Layer_1" xmlns="http://www.w3.org/2000/svg" xmlns:xlink="http://www.w3.org/1999/xlink" x="0px" y="0px"
	 width="50px" height="50px" viewBox="0 0 50 50" enable-background="new 0 0 50 50" xml:space="preserve">
<g>
	<g>
		<polygon fill="#E88024" points="8.501,28.338 10.795,26.043 6.207,26.043 		"/>
		<polygon fill="#E88024" points="40.266,27.973 40.266,34.068 32.243,26.043 26.786,26.043 37.583,36.838 31.485,36.838 
			35.344,40.697 44.126,40.697 44.126,31.83 		"/>
		<polygon fill="#E88024" points="18.79,12.591 7.422,23.959 12.879,23.959 18.79,18.047 24.702,23.959 30.159,23.959 		"/>
	</g>
	<path fill="#C2C2C1" d="M0,0v20.717v3.243v2.083v3.855V50h50V26.043v-2.083V0H0z M48.305,48.305H1.695V29.898v-3.855h3.554h0.958
		h4.588h15.991h5.457h16.062V48.305z M30.159,23.959h-5.457H12.879H7.422H5.249H1.695v-3.243V1.695h46.609v22.265H30.159z"/>
</g>
</svg>
