<?xml version="1.0" encoding="utf-8"?>
<!-- Generator: Adobe Illustrator 14.0.0, SVG Export Plug-In . SVG Version: 6.00 Build 43363)  -->
<!DOCTYPE svg PUBLIC "-//W3C//DTD SVG 1.1//EN" "http://www.w3.org/Graphics/SVG/1.1/DTD/svg11.dtd">
<svg version="1.1" id="Layer_1" xmlns="http://www.w3.org/2000/svg" xmlns:xlink="http://www.w3.org/1999/xlink" x="0px" y="0px"
	 width="50px" height="50px" viewBox="0 0 50 50" enable-background="new 0 0 50 50" xml:space="preserve">
<g>
	<g>
		<polygon fill="#E88024" points="32.601,7.641 28.982,11.26 35.79,11.26 23.093,23.959 28.212,23.959 38.443,13.725 38.443,20.936 
			42.066,17.318 42.066,7.641 		"/>
		<polygon fill="#E88024" points="7.251,39.802 9.81,42.359 26.129,26.043 21.01,26.043 		"/>
	</g>
	<path fill="#C2C2C1" d="M0,0v19.209v4.75v2.084v2.912V50h50V26.043v-2.084V0H0z M48.305,48.305H1.695v-19.35v-2.912h6.355H21.01
		h5.119h22.176V48.305z M28.212,23.959h-5.119H8.051H1.695v-4.75V1.695h46.609v22.264H28.212z"/>
</g>
</svg>
