<?xml version="1.0" encoding="utf-8"?>
<!-- Generator: Adobe Illustrator 14.0.0, SVG Export Plug-In . SVG Version: 6.00 Build 43363)  -->
<!DOCTYPE svg PUBLIC "-//W3C//DTD SVG 1.1//EN" "http://www.w3.org/Graphics/SVG/1.1/DTD/svg11.dtd">
<svg version="1.1" id="Layer_1" xmlns="http://www.w3.org/2000/svg" xmlns:xlink="http://www.w3.org/1999/xlink" x="0px" y="0px"
	 width="50px" height="50px" viewBox="0 0 50 50" enable-background="new 0 0 50 50" xml:space="preserve">
<g>
	<rect y="19.229" fill="#C2C2C1" width="50" height="2.327"/>
	<rect y="38.224" fill="#C2C2C1" width="50" height="2.313"/>
	<polygon fill="#E88024" points="37.924,19.229 41.07,13.575 43.125,20.04 45.291,15.849 42.59,7.359 34.285,10.001 32.121,14.188 
		37.945,12.333 34.105,19.229 32.811,21.556 24.97,35.646 17.533,21.556 16.306,19.229 15.069,16.884 13.773,19.229 12.486,21.556 
		7.49,30.602 2.223,30.602 2.223,33.934 9.455,33.934 15.003,23.9 22.563,38.224 23.782,40.536 24.895,42.641 26.063,40.536 
		27.35,38.224 36.628,21.556 	"/>
</g>
</svg>
