<?xml version="1.0" encoding="utf-8"?>
<!-- Generator: Adobe Illustrator 14.0.0, SVG Export Plug-In . SVG Version: 6.00 Build 43363)  -->
<!DOCTYPE svg PUBLIC "-//W3C//DTD SVG 1.1//EN" "http://www.w3.org/Graphics/SVG/1.1/DTD/svg11.dtd">
<svg version="1.1" id="Layer_1" xmlns="http://www.w3.org/2000/svg" xmlns:xlink="http://www.w3.org/1999/xlink" x="0px" y="0px"
	 width="50px" height="50px" viewBox="0 0 50 50" enable-background="new 0 0 50 50" xml:space="preserve">
<g>
	<g>
		<polygon fill="#C2C2C2" points="26.33,30.911 24.7,30.911 18.136,30.911 12.75,30.911 5.816,30.911 1.91,30.911 1.505,30.911 
			0,30.911 0,29.521 1.505,29.521 1.91,29.521 5.816,29.521 13.886,29.521 19.272,29.521 20.506,28.018 22.686,29.521 
			27.476,29.521 48.611,29.521 50,29.521 50,30.911 48.611,30.911 		"/>
		<polygon fill="#C2C2C2" points="48.611,41.675 42.145,41.675 40.973,41.675 28.646,41.675 9.325,41.675 3.938,41.675 
			1.505,41.675 0,41.675 0,40.98 1.505,40.98 4.507,40.98 9.893,40.98 28.646,40.98 40.973,40.98 42.145,40.98 48.611,40.98 
			50,40.98 50,41.675 		"/>
		<polygon fill="#C2C2C2" points="36.063,19.105 30.661,19.105 12.717,19.105 4.037,19.105 1.505,19.105 0,19.105 0,16.328 
			1.505,16.328 4.037,16.328 12.717,16.328 32.951,16.328 38.352,16.328 48.611,16.328 50,16.328 50,19.105 48.611,19.105 		"/>
	</g>
	<polygon fill="#E98024" points="43.311,16.028 43.311,10.311 36.036,19.105 36.063,19.105 27.547,29.436 27.561,29.436 
		25.739,31.628 22.686,29.521 20.506,28.018 18.129,30.911 18.136,30.911 9.314,41.675 9.325,41.675 5.663,46.147 2.438,43.508 
		3.76,41.893 3.75,41.893 12.288,31.475 12.279,31.475 19.708,22.411 24.955,26.025 29.462,20.56 29.449,20.56 40.077,7.686 
		34.965,7.686 38.8,3.853 43.313,3.854 43.313,3.853 47.141,3.853 47.141,12.193 	"/>
</g>
</svg>
