<?xml version="1.0" encoding="utf-8"?>
<!-- Generator: Adobe Illustrator 14.0.0, SVG Export Plug-In . SVG Version: 6.00 Build 43363)  -->
<!DOCTYPE svg PUBLIC "-//W3C//DTD SVG 1.1//EN" "http://www.w3.org/Graphics/SVG/1.1/DTD/svg11.dtd">
<svg version="1.1" id="Layer_1" xmlns="http://www.w3.org/2000/svg" xmlns:xlink="http://www.w3.org/1999/xlink" x="0px" y="0px"
	 width="50px" height="50px" viewBox="0 0 50 50" enable-background="new 0 0 50 50" xml:space="preserve">
<g>
	<rect y="22.316" fill="#C2C2C1" width="50" height="2.083"/>
	<polygon fill="#E88024" points="40.266,26.328 40.266,32.424 32.98,25.136 32.98,25.136 32.36,24.516 32.243,24.399 32.243,24.399 
		30.159,22.315 30.159,22.315 18.79,10.947 7.422,22.315 7.423,22.315 6.818,22.919 5.772,23.965 6.356,24.549 8.501,26.693 
		10.645,24.549 10.646,24.549 18.79,16.403 24.702,22.315 27.523,25.136 27.523,25.136 37.583,35.193 31.484,35.193 35.344,39.053 
		44.126,39.053 44.126,30.186 	"/>
</g>
</svg>
