<?xml version="1.0" encoding="utf-8"?>
<!-- Generator: Adobe Illustrator 14.0.0, SVG Export Plug-In . SVG Version: 6.00 Build 43363)  -->
<!DOCTYPE svg PUBLIC "-//W3C//DTD SVG 1.1//EN" "http://www.w3.org/Graphics/SVG/1.1/DTD/svg11.dtd">
<svg version="1.1" id="Layer_1" xmlns="http://www.w3.org/2000/svg" xmlns:xlink="http://www.w3.org/1999/xlink" x="0px" y="0px"
	 width="50px" height="50px" viewBox="0 0 50 50" enable-background="new 0 0 50 50" xml:space="preserve">
<g>
	<polygon fill="#E88024" points="22.719,40.535 16.919,34.732 25.61,26.043 27.694,23.959 35.673,15.979 35.673,23.182 
		39.338,19.52 39.338,9.747 29.738,9.747 26.095,13.39 33.082,13.39 22.511,23.959 20.427,26.043 11.733,34.732 17.535,40.535 
		10.663,47.408 11.562,48.305 14.951,48.305 	"/>
	<path fill="#C2C2C1" d="M0,0v7.663v2.084v38.558V50h28.99h8.334H50v-1.695V9.747V7.663V0H0z M1.695,1.695h46.609v5.968H11.088
		H3.497H1.695V1.695z M37.324,48.305H28.99H14.951h-3.39H1.695V9.747h1.802h7.591h18.65h9.6h8.967v38.558H37.324z"/>
</g>
</svg>
