<?xml version="1.0" encoding="utf-8"?>
<!-- Generator: Adobe Illustrator 19.0.0, SVG Export Plug-In . SVG Version: 6.00 Build 0)  -->
<svg version="1.1" id="Layer_1" xmlns="http://www.w3.org/2000/svg" xmlns:xlink="http://www.w3.org/1999/xlink" x="0px" y="0px"
	 viewBox="0 0 72 72" style="enable-background:new 0 0 72 72;" xml:space="preserve">
<style type="text/css">
	.st0{fill:none;stroke:#293052;stroke-linecap:round;stroke-miterlimit:10;}
	.st1{fill:none;stroke:#293052;stroke-miterlimit:10;}
	.st2{fill:none;stroke:#293052;stroke-linejoin:round;stroke-miterlimit:10;}
</style>
<g id="XMLID_727_">
	<g id="XMLID_726_">
		<g id="XMLID_710_">
			<line id="XMLID_714_" class="st0" x1="40.8" y1="28.1" x2="40.8" y2="32.4"/>
			<line id="XMLID_713_" class="st0" x1="31.2" y1="32.4" x2="31.2" y2="28.1"/>
		</g>
		<path id="XMLID_715_" class="st1" d="M40.5,31.6c8.8,0,15.9,7.1,15.9,15.8v4.2c0,0.6-0.5,1.1-1.1,1.1H16.8c-0.6,0-1.1-0.5-1.1-1.1
			v-4.2c0-8.7,7.1-15.8,15.9-15.8"/>
		<g id="XMLID_668_">
			<path id="XMLID_277_" class="st1" d="M41,26.6H31c-4.5,0-8.1-3.6-8.1-8.1V2.3c0-1,0.8-1.8,1.8-1.8h22.6c1,0,1.8,0.8,1.8,1.8v16.2
				C49.1,23,45.5,26.6,41,26.6z"/>
			<g id="XMLID_666_">
				<path id="XMLID_665_" class="st1" d="M49.1,9.5h0.9c1,0,1.8,0.8,1.8,1.8v2.2c0,1-0.8,1.8-1.8,1.8h-0.9"/>
				<path id="XMLID_667_" class="st1" d="M22.9,9.5h-0.9c-1,0-1.8,0.8-1.8,1.8v2.2c0,1,0.8,1.8,1.8,1.8h0.9"/>
			</g>
			<path id="XMLID_709_" class="st2" d="M23.2,10.3c0,0,11.7-0.7,16.1-5.3c0,0,2.9,4.4,9.3,5"/>
		</g>
		<g id="XMLID_717_">
			<path id="XMLID_716_" class="st1" d="M31.5,15.7L31.5,15.7c-0.6,0-1.2-0.5-1.2-1.1v0c0-0.6,0.5-1.1,1.1-1.1h0
				c0.6,0,1.1,0.5,1.1,1.1v0C32.6,15.1,32.1,15.7,31.5,15.7z"/>
			<path id="XMLID_721_" class="st1" d="M40.6,15.7L40.6,15.7c-0.6,0-1.2-0.5-1.2-1.1v0c0-0.6,0.5-1.1,1.1-1.1h0
				c0.6,0,1.1,0.5,1.1,1.1v0C41.7,15.1,41.2,15.7,40.6,15.7z"/>
		</g>
		<line id="XMLID_723_" class="st0" x1="31.1" y1="20.3" x2="40.9" y2="20.3"/>
		<g id="XMLID_722_">
			<line id="XMLID_724_" class="st0" x1="22.7" y1="52.5" x2="22.7" y2="43.6"/>
			<line id="XMLID_725_" class="st0" x1="49.3" y1="52.5" x2="49.3" y2="43.6"/>
		</g>
	</g>
	<line id="XMLID_728_" class="st0" x1="27.6" y1="59.9" x2="56.3" y2="59.9"/>
	<line id="XMLID_729_" class="st0" x1="27.6" y1="65.7" x2="56.3" y2="65.7"/>
	<line id="XMLID_730_" class="st0" x1="27.6" y1="71.5" x2="56.3" y2="71.5"/>
	<line id="XMLID_733_" class="st0" x1="15.7" y1="59.9" x2="23.5" y2="59.9"/>
	<line id="XMLID_732_" class="st0" x1="15.7" y1="65.7" x2="23.5" y2="65.7"/>
	<line id="XMLID_731_" class="st0" x1="15.7" y1="71.5" x2="23.5" y2="71.5"/>
</g>
</svg>
