<?xml version="1.0" encoding="utf-8"?>
<!-- Generator: Adobe Illustrator 16.0.0, SVG Export Plug-In . SVG Version: 6.00 Build 0)  -->
<!DOCTYPE svg PUBLIC "-//W3C//DTD SVG 1.1//EN" "http://www.w3.org/Graphics/SVG/1.1/DTD/svg11.dtd">
<svg version="1.1" id="Layer_1" xmlns="http://www.w3.org/2000/svg" xmlns:xlink="http://www.w3.org/1999/xlink" x="0px" y="0px"
	 width="83.857px" height="83.86px" viewBox="0 0 83.857 83.86" enable-background="new 0 0 83.857 83.86" xml:space="preserve">
<g>
	<g>
		<g>
			<g>
				<g>
					<circle fill="#F28021" cx="41.929" cy="41.93" r="41.929"/>
				</g>
			</g>
			<g>
				<g>
					<circle fill="#FFFFFF" cx="41.929" cy="41.93" r="27.458"/>
				</g>
			</g>
			<g>
				<g>
					<path fill="#F28021" d="M41.928,66.174c-13.367,0-24.241-10.876-24.241-24.244s10.875-24.243,24.241-24.243
						c13.368,0,24.243,10.875,24.243,24.243S55.295,66.174,41.928,66.174z M41.928,19.294c-12.48,0-22.634,10.154-22.634,22.636
						s10.154,22.637,22.634,22.637c12.481,0,22.636-10.155,22.636-22.637S54.409,19.294,41.928,19.294z"/>
				</g>
			</g>
		</g>
		<g>
			<path fill-rule="evenodd" clip-rule="evenodd" fill="#F28021" d="M30.217,32.121c1.838,0,3.566-0.015,5.293,0.025
				c0.154,0.004,0.391,0.356,0.432,0.576c0.07,0.385,0.02,0.795,0.02,1.262c4.047,0,8.018,0,11.969,0
				c0.049-0.087,0.096-0.134,0.1-0.184c0.113-1.713,0.113-1.715,1.863-1.715c0.955-0.001,1.912,0.036,2.863-0.012
				c0.676-0.033,0.9,0.189,0.902,0.881c0.012,4.904-1.707,9.095-5.164,12.552c-0.912,0.913-1.961,1.688-2.953,2.519
				c-1.078,0.901-2.049,1.87-2.316,3.338c-0.322,1.771,0.246,2.696,1.938,3.342c0.65,0.249,1.297,0.613,1.818,1.069
				c0.443,0.388,0.291,0.809-0.375,0.805c-3.268-0.009-6.533-0.032-9.801-0.054c-0.082,0-0.164-0.044-0.494-0.137
				c0.289-0.401,0.459-0.852,0.779-1.034c0.646-0.365,1.391-0.549,2.061-0.875c0.365-0.177,0.775-0.423,0.977-0.754
				c0.67-1.104,0.5-3.03-0.404-3.953c-1.313-1.337-2.719-2.582-4.076-3.873c-3.285-3.121-5.113-6.935-5.424-11.458
				C30.174,33.723,30.217,33,30.217,32.121z M47.217,44.902c2.834-2.406,5.418-8.274,4.682-11.32c-0.885,0-1.768,0-2.699,0
				C48.963,37.416,48.848,41.221,47.217,44.902z M36.535,44.94c-1.496-3.633-1.752-7.468-1.861-11.36c-0.977,0-1.883,0-2.869,0
				C31.689,38.113,33.629,41.72,36.535,44.94z"/>
		</g>
	</g>
</g>
</svg>
