<?xml version="1.0" encoding="utf-8"?>
<!-- Generator: Adobe Illustrator 16.0.0, SVG Export Plug-In . SVG Version: 6.00 Build 0)  -->
<!DOCTYPE svg PUBLIC "-//W3C//DTD SVG 1.1//EN" "http://www.w3.org/Graphics/SVG/1.1/DTD/svg11.dtd">
<svg version="1.1" id="Layer_1" xmlns="http://www.w3.org/2000/svg" xmlns:xlink="http://www.w3.org/1999/xlink" x="0px" y="0px"
	 width="83.859px" height="83.86px" viewBox="0 0 83.859 83.86" enable-background="new 0 0 83.859 83.86" xml:space="preserve">
<g>
	<g>
		<g>
			<g>
				<g>
					<circle fill="#F28021" cx="41.93" cy="41.93" r="41.93"/>
				</g>
			</g>
			<g>
				<g>
					<circle fill="#FFFFFF" cx="41.93" cy="41.93" r="27.459"/>
				</g>
			</g>
			<g>
				<g>
					<path fill="#F28021" d="M41.93,66.174c-13.368,0-24.243-10.876-24.243-24.244S28.562,17.687,41.93,17.687
						S66.173,28.562,66.173,41.93S55.297,66.174,41.93,66.174z M41.93,19.294c-12.481,0-22.636,10.154-22.636,22.636
						S29.448,64.566,41.93,64.566S64.565,54.411,64.565,41.93S54.411,19.294,41.93,19.294z"/>
				</g>
			</g>
		</g>
		<g>
			<g>
				<path fill="#F28021" d="M53.984,54.719H31.207c-0.666,0-1.206-0.54-1.206-1.206V39.578c0-0.666,0.54-1.206,1.206-1.206h22.777
					c0.666,0,1.206,0.54,1.206,1.206v13.935C55.19,54.179,54.65,54.719,53.984,54.719z M32.413,52.307h20.365V40.784H32.413V52.307z
					"/>
			</g>
			<g>
				<path fill="#F28021" d="M51.941,40.784c-0.666,0-1.206-0.54-1.206-1.206v-4.891c0-1.995-1.623-3.617-3.618-3.617h-9.043
					c-1.995,0-3.618,1.622-3.618,3.617v4.891c0,0.666-0.54,1.206-1.206,1.206s-1.206-0.54-1.206-1.206v-4.891
					c0-3.324,2.705-6.029,6.03-6.029h9.043c3.325,0,6.03,2.705,6.03,6.029v4.891C53.147,40.244,52.607,40.784,51.941,40.784z"/>
			</g>
			<g>
				<path fill="#F28021" d="M41.523,49.962c-0.018,0-0.037-0.001-0.055-0.001c-0.338-0.016-0.655-0.173-0.872-0.434l-3.014-3.617
					c-0.426-0.512-0.357-1.271,0.154-1.698c0.512-0.424,1.272-0.358,1.698,0.155l2.168,2.603l4.693-4.693
					c0.471-0.471,1.234-0.471,1.705,0c0.471,0.471,0.471,1.234,0,1.705l-5.627,5.627C42.149,49.835,41.842,49.962,41.523,49.962z"/>
			</g>
		</g>
	</g>
</g>
</svg>
